<svg width="34" height="34" viewBox="0 0 34 34" fill="none" xmlns="http://www.w3.org/2000/svg">
<path d="M24.9681 10.0938C24.9903 10.0937 25.0124 10.0924 25.0345 10.0896C25.9304 9.97762 27.6248 9.27279 27.6248 7.40797C27.6248 6.83555 27.8733 6.41851 28.3846 6.1325C28.6606 5.983 28.9612 5.88426 29.2721 5.84098C29.4111 5.8257 29.5386 5.75617 29.6267 5.64747C29.7148 5.53878 29.7565 5.39972 29.7427 5.26047C29.7289 5.12123 29.6607 4.99306 29.553 4.9038C29.4452 4.81453 29.3066 4.77139 29.1672 4.78373C28.2663 4.87138 26.5625 5.53252 26.5625 7.40803C26.5625 7.98577 26.3107 8.41396 25.7928 8.71777C25.5172 8.87511 25.216 8.98263 24.903 9.03539C24.7689 9.05217 24.6463 9.11939 24.5601 9.22337C24.4738 9.32735 24.4305 9.46029 24.4387 9.59512C24.447 9.72996 24.5064 9.85658 24.6047 9.94921C24.703 10.0418 24.833 10.0935 24.9681 10.0938Z" fill="#5E9C60"/>
<path d="M1.06587 13.8462C1.06767 13.875 1.07184 13.9036 1.07835 13.9317L2.65291 20.7649L1.98506 32.9083C1.9811 32.9804 1.99188 33.0526 2.01675 33.1204C2.04162 33.1882 2.08005 33.2502 2.12969 33.3027C2.17934 33.3551 2.23916 33.3969 2.3055 33.4255C2.37183 33.454 2.4433 33.4687 2.51552 33.4687H31.4844C31.5567 33.4687 31.6281 33.454 31.6945 33.4255C31.7608 33.3969 31.8206 33.3551 31.8703 33.3027C31.9199 33.2502 31.9583 33.1882 31.9832 33.1204C32.0081 33.0526 32.0189 32.9804 32.0149 32.9083L31.347 20.7647L32.9216 13.9315C32.9281 13.9033 32.9323 13.8747 32.9341 13.8459C32.9553 13.5367 32.8854 13.228 32.7329 12.9582C32.5804 12.6884 32.352 12.4692 32.0762 12.3279C32.0111 12.294 31.9439 12.2643 31.875 12.239V5.31248C31.8752 4.21567 31.4983 3.15214 30.8074 2.30028C30.1165 1.44842 29.1537 0.86006 28.0804 0.633884C27.0072 0.407708 25.8888 0.557477 24.9129 1.05807C23.937 1.55866 23.1629 2.37962 22.7205 3.38325C22.0075 2.93758 21.1896 2.68777 20.3493 2.65902C19.509 2.63027 18.676 2.82359 17.9342 3.21949C17.3787 2.58698 16.666 2.11239 15.8682 1.84372C15.0704 1.57504 14.2158 1.52181 13.3908 1.6894C12.5658 1.85699 11.7997 2.23947 11.17 2.79815C10.5403 3.35682 10.0693 4.07188 9.8046 4.87101C9.55234 4.81067 9.2938 4.78053 9.03442 4.78123C8.67961 4.77925 8.32692 4.83602 7.99064 4.94924L9.0125 1.20227C9.034 1.12346 9.03703 1.04076 9.02136 0.960585C9.00569 0.880415 8.97175 0.804938 8.92217 0.74002C8.87258 0.675103 8.8087 0.622494 8.73548 0.586282C8.66225 0.550071 8.58167 0.531233 8.49998 0.531232H5.84373C5.72715 0.531253 5.61381 0.569623 5.52119 0.640426C5.42857 0.711229 5.36181 0.810534 5.33121 0.923028L4.82951 2.76248L4.7625 2.51678C4.7319 2.40428 4.66514 2.30498 4.57252 2.23418C4.4799 2.16337 4.36656 2.125 4.24998 2.12498H1.59373C1.51208 2.125 1.43153 2.14383 1.35834 2.18002C1.28515 2.21622 1.22129 2.26879 1.17171 2.33367C1.12214 2.39855 1.08818 2.47398 1.07249 2.5541C1.05679 2.63423 1.05977 2.7169 1.08121 2.79568L2.59879 8.36053C2.23143 9.45557 1.99283 10.8843 2.20845 12.2112C2.1102 12.2414 2.01491 12.2805 1.92377 12.328C1.64789 12.4693 1.41955 12.6885 1.26705 12.9584C1.11455 13.2282 1.0446 13.5369 1.06587 13.8462ZM23.375 5.31248C23.375 4.32621 23.7668 3.38033 24.4642 2.68293C25.1616 1.98553 26.1075 1.59373 27.0937 1.59373C28.08 1.59373 29.0259 1.98553 29.7233 2.68293C30.4207 3.38033 30.8125 4.32621 30.8125 5.31248V12.2182C30.6297 12.2788 30.4589 12.371 30.3078 12.4905C30.1994 12.5759 30.0635 12.619 29.9257 12.6115C29.7878 12.6041 29.6574 12.5468 29.5588 12.4502L28.8723 11.7738C28.5667 11.4752 28.1564 11.3081 27.7292 11.3081C27.302 11.3081 26.8917 11.4752 26.5861 11.7738L25.9808 12.3703C25.8745 12.4741 25.7319 12.5322 25.5834 12.5322C25.4349 12.5322 25.2923 12.4741 25.186 12.3703L24.5806 11.7738C24.422 11.6183 24.2331 11.497 24.0258 11.4174C23.8184 11.3378 23.5969 11.3016 23.375 11.311V5.31248ZM14.3437 2.65623C14.9374 2.65722 15.5222 2.79995 16.0495 3.07254C16.5769 3.34512 17.0315 3.73969 17.3756 4.22342C17.4561 4.33644 17.5775 4.41353 17.714 4.43821C17.8505 4.46289 17.9912 4.4332 18.1061 4.3555C18.7424 3.92605 19.496 3.70399 20.2635 3.71979C21.031 3.73559 21.7748 3.98848 22.3929 4.44375C22.3397 4.73027 22.3128 5.02106 22.3125 5.31248V9.0299C21.3519 8.31004 20.1758 7.93678 18.9759 7.971C17.776 8.00521 16.6231 8.44487 15.7051 9.2183C15.6011 8.76349 15.4617 8.3175 15.2882 7.8844C14.9034 6.93638 14.348 6.38415 13.6374 6.2431C12.9914 6.11487 12.3911 6.36741 11.9684 6.63417C11.6884 6.09926 11.2817 5.64109 10.7838 5.29973C11.0154 4.53572 11.4865 3.86637 12.1274 3.39041C12.7684 2.91445 13.5454 2.65707 14.3437 2.65623ZM22.3125 10.4718V11.7578C22.3066 11.7634 22.3003 11.7681 22.2945 11.7738L21.6891 12.3703C21.5828 12.4741 21.4402 12.5322 21.2917 12.5322C21.1432 12.5322 21.0006 12.4741 20.8943 12.3703L20.2889 11.7738C19.9833 11.4752 19.573 11.3081 19.1458 11.3081C18.7186 11.3081 18.3084 11.4752 18.0028 11.7738L17.3974 12.3703C17.2911 12.4741 17.1485 12.5322 17 12.5322C16.8515 12.5322 16.7088 12.4741 16.6026 12.3703L15.9972 11.7738C15.809 11.5884 15.578 11.4521 15.3247 11.377C15.6364 10.755 16.096 10.219 16.6632 9.81616C17.2305 9.41329 17.8879 9.15586 18.5779 9.06648C19.2679 8.97711 19.9692 9.05851 20.6204 9.30355C21.2716 9.54859 21.8526 9.94977 22.3125 10.4718ZM6.24947 1.59373H7.80444L6.64293 5.85263C6.42905 6.08983 6.24488 6.35221 6.09448 6.63397C6.01765 6.58549 5.93471 6.53748 5.84685 6.49212L5.38022 4.78123L6.24947 1.59373ZM5.93982 7.85631C6.0054 7.92295 6.08741 7.9711 6.17756 7.9959C6.26771 8.0207 6.36281 8.02126 6.45325 7.99754C6.54369 7.97382 6.62626 7.92665 6.69264 7.8608C6.75901 7.79494 6.80683 7.71274 6.83126 7.62249C6.83604 7.60476 7.33249 5.84373 9.03442 5.84373C10.7136 5.84373 11.2115 7.55197 11.2312 7.62249C11.2556 7.71274 11.3035 7.79494 11.3698 7.8608C11.4362 7.92665 11.5188 7.97382 11.6092 7.99754C11.6997 8.02126 11.7948 8.0207 11.8849 7.9959C11.975 7.9711 12.0571 7.92295 12.1226 7.85631C12.3 7.67608 12.9209 7.18394 13.4302 7.28521C13.7679 7.35222 14.0616 7.68823 14.3035 8.28396C14.5475 8.89594 14.7163 9.53529 14.8061 10.188C14.5211 10.5847 14.2925 11.0191 14.1268 11.4786C13.9734 11.5543 13.8331 11.6539 13.7111 11.7737L13.1057 12.3703C13.033 12.4413 12.9427 12.4916 12.844 12.5158C12.7454 12.5401 12.6421 12.5374 12.5448 12.5082C12.7979 10.5129 12.2551 9.37761 12.2305 9.3278C12.1689 9.20113 12.0594 9.10415 11.9262 9.0582C11.793 9.01225 11.647 9.0211 11.5203 9.0828C11.3936 9.14449 11.2966 9.25398 11.2507 9.38718C11.2048 9.52038 11.2136 9.66637 11.2753 9.79304C11.2791 9.80108 11.5764 10.4514 11.5476 11.6391C11.2353 11.4035 10.849 11.2875 10.4586 11.3123C10.0682 11.337 9.69962 11.5008 9.41964 11.774L8.81421 12.3705C8.70797 12.4743 8.56535 12.5324 8.41684 12.5324C8.26833 12.5324 8.12571 12.4743 8.01947 12.3705L7.41411 11.774C7.18141 11.5451 6.8848 11.392 6.56338 11.3351C6.59598 10.3545 6.84368 9.81489 6.85211 9.79683C6.91191 9.67093 6.91983 9.52656 6.87417 9.39487C6.82851 9.26318 6.73292 9.1547 6.60801 9.09284C6.4831 9.03098 6.33889 9.02069 6.20647 9.06418C6.07404 9.10768 5.96401 9.20147 5.90011 9.32535C5.88264 9.36028 5.50606 10.1315 5.49756 11.5029C5.36203 11.5752 5.23756 11.6666 5.12794 11.7743L4.44143 12.45C4.34281 12.5466 4.21238 12.6039 4.07453 12.6113C3.93668 12.6188 3.80085 12.5757 3.69243 12.4903C3.57211 12.3953 3.43921 12.3175 3.29752 12.259C3.00533 10.8977 3.33225 9.33537 3.75897 8.28403C4.00029 7.68963 4.29328 7.35381 4.62989 7.28574C5.13531 7.18334 5.74777 7.66393 5.93982 7.85631ZM2.28927 3.18748H3.84424L4.66907 6.21209C4.58722 6.21684 4.50579 6.2272 4.42536 6.2431C3.99717 6.3281 3.62583 6.56344 3.31372 6.94362L2.28927 3.18748ZM2.41757 13.2689C2.51455 13.2166 2.62481 13.194 2.73457 13.2039C2.84433 13.2139 2.94873 13.2559 3.03475 13.3248C3.34658 13.57 3.73705 13.6933 4.13317 13.6716C4.5293 13.6499 4.90395 13.4847 5.18711 13.2068L5.87335 12.5308C5.97957 12.427 6.1222 12.3689 6.27072 12.3689C6.41925 12.3689 6.56187 12.427 6.6681 12.5308L7.27352 13.1273C7.5791 13.4259 7.98937 13.5931 8.41661 13.5931C8.84384 13.5931 9.25412 13.4259 9.55969 13.1273L10.1651 12.5308C10.2713 12.427 10.4139 12.3689 10.5624 12.3689C10.7109 12.3689 10.8536 12.427 10.9598 12.5308L11.5652 13.1273C11.8708 13.4259 12.2811 13.5931 12.7083 13.5931C13.1355 13.5931 13.5458 13.4259 13.8513 13.1273L14.4566 12.5308C14.5628 12.427 14.7055 12.3689 14.854 12.3689C15.0025 12.3689 15.1451 12.427 15.2514 12.5308L15.8568 13.1273C16.1624 13.4259 16.5726 13.5931 16.9998 13.5931C17.4271 13.5931 17.8373 13.4259 18.1429 13.1273L18.7483 12.5308C18.8545 12.427 18.9972 12.3689 19.1457 12.3689C19.2942 12.3689 19.4368 12.427 19.5431 12.5308L20.1485 13.1273C20.4541 13.4259 20.8643 13.5931 21.2916 13.5931C21.7188 13.5931 22.129 13.4259 22.4346 13.1273L23.04 12.5308C23.1463 12.427 23.2889 12.3689 23.4374 12.3689C23.5859 12.3689 23.7286 12.427 23.8348 12.5308L24.4401 13.1273C24.7457 13.4259 25.156 13.5931 25.5832 13.5931C26.0105 13.5931 26.4207 13.4259 26.7263 13.1273L27.3317 12.5308C27.438 12.427 27.5806 12.3689 27.7291 12.3689C27.8776 12.3689 28.0203 12.427 28.1265 12.5308L28.8127 13.2069C29.0959 13.4848 29.4705 13.65 29.8667 13.6717C30.2628 13.6935 30.6532 13.5702 30.9651 13.3249C31.0511 13.256 31.1555 13.214 31.2653 13.2041C31.375 13.1941 31.4853 13.2167 31.5823 13.2691C31.6698 13.3135 31.7434 13.3811 31.795 13.4645C31.8466 13.5479 31.8743 13.644 31.875 13.7421L30.2945 20.5992C30.2833 20.6478 30.2791 20.6978 30.2818 20.7476L30.9232 32.4062H3.07678L3.71793 20.7479C3.72076 20.698 3.71655 20.6479 3.70545 20.5992L2.12498 13.7421C2.12561 13.644 2.15325 13.5479 2.20486 13.4644C2.25647 13.381 2.33006 13.3134 2.41757 13.2689Z" fill="#5E9C60"/>
<path d="M12.75 20.7188H21.25C21.3909 20.7188 21.526 20.6628 21.6257 20.5632C21.7253 20.4635 21.7812 20.3284 21.7812 20.1875V17C21.7812 16.8591 21.7253 16.724 21.6257 16.6243C21.526 16.5247 21.3909 16.4688 21.25 16.4688H12.75C12.6091 16.4688 12.474 16.5247 12.3743 16.6243C12.2747 16.724 12.2188 16.8591 12.2188 17V20.1875C12.2188 20.3284 12.2747 20.4635 12.3743 20.5632C12.474 20.6628 12.6091 20.7188 12.75 20.7188ZM13.2812 17.5312H20.7188V19.6562H13.2812V17.5312Z" fill="#5E9C60"/>
</svg>
