<svg width="14" height="15" viewBox="0 0 14 15" fill="none" xmlns="http://www.w3.org/2000/svg">
<path d="M13.1141 6.56134H12.7723V4.14991C12.7723 3.5842 12.3457 3.13848 11.8316 3.13848H11.5746V1.52705C11.5746 0.961339 11.1754 0.515625 10.6914 0.515625C10.6914 0.515625 10.6641 0.515625 10.634 0.515625L0.883203 3.13562C0.880469 3.13562 0.875 3.13848 0.872266 3.13848C0.391016 3.17848 0 3.60991 0 4.14991V13.5042C0 14.0699 0.426563 14.5156 0.940625 14.5156H11.8316C12.373 14.5156 12.7996 14.0699 12.7996 13.5042V11.0299H13.1141C13.2863 11.0299 13.3984 10.9099 13.3984 10.7328V6.86134C13.3984 6.68134 13.2563 6.56134 13.1141 6.56134ZM10.7461 1.08134C10.8883 1.10991 11.0305 1.28991 11.0305 1.52705V3.13562H3.16367L10.7461 1.08134ZM12.2309 13.5042C12.2309 13.7413 12.0586 13.9499 11.8316 13.9499H0.940625C0.713672 13.9499 0.541406 13.7413 0.541406 13.5042V4.14991C0.541406 3.91277 0.713672 3.7042 0.940625 3.7042H11.8016C12.0285 3.7042 12.2008 3.91277 12.2008 4.14991V6.56134H9.37891C8.18125 6.56134 7.24062 7.5442 7.24062 8.79562C7.24062 10.0471 8.20859 11.0299 9.37891 11.0299H12.2309V13.5042ZM12.827 10.4642H9.37891C8.52305 10.4642 7.81211 9.71848 7.81211 8.82705C7.81211 7.93563 8.52578 7.18991 9.37891 7.18991H12.827V10.4642Z" fill="black"/>
</svg>
