<svg width="28" height="28" viewBox="0 0 28 28" fill="none" xmlns="http://www.w3.org/2000/svg">
<path d="M0 10C0 4.47715 4.47715 0 10 0H18C23.5228 0 28 4.47715 28 10V18C28 23.5228 23.5228 28 18 28H10C4.47715 28 0 23.5228 0 18V10Z" fill="#217C8F" fill-opacity="0.16"/>
<path d="M10.2629 16.9883L7.50391 14.4473C7.41292 14.3579 7.3047 14.288 7.18584 14.2418C7.06697 14.1956 6.93995 14.1741 6.8125 14.1785V11.5C6.81217 11.2515 6.71329 11.0132 6.53755 10.8375C6.3618 10.6617 6.12354 10.5628 5.875 10.5625H5.25C5.00146 10.5628 4.7632 10.6617 4.58745 10.8375C4.41171 11.0132 4.31283 11.2515 4.3125 11.5V18.3934C4.31208 18.639 4.4085 18.875 4.58086 19.05L6.72305 21.2246C6.78018 21.2833 6.81226 21.3619 6.8125 21.4438V22.125C6.8125 22.2079 6.84543 22.2874 6.90403 22.346C6.96264 22.4046 7.04212 22.4375 7.125 22.4375H10.25C10.3329 22.4375 10.4124 22.4046 10.471 22.346C10.5296 22.2874 10.5625 22.2079 10.5625 22.125V19.0008L10.5652 17.6797C10.5654 17.5498 10.5387 17.4213 10.4866 17.3022C10.4346 17.1832 10.3584 17.0763 10.2629 16.9883ZM9.9375 19V21.8125H7.4375V21.4438C7.43822 21.1975 7.3413 20.9609 7.16797 20.7859L5.02695 18.6125C4.96949 18.5541 4.93735 18.4753 4.9375 18.3934V11.5C4.93762 11.4172 4.97058 11.3377 5.02916 11.2792C5.08774 11.2206 5.16716 11.1876 5.25 11.1875H5.875C5.95785 11.1876 6.03727 11.2206 6.09585 11.2792C6.15443 11.3377 6.18739 11.4172 6.1875 11.5V14.448C6.18594 14.4492 6.18438 14.4508 6.18281 14.452L5.74102 14.8938C5.56518 15.0696 5.4664 15.3081 5.4664 15.5568C5.4664 15.8055 5.56518 16.044 5.74102 16.2199L7.72969 18.2086C7.75872 18.2376 7.79319 18.2607 7.83113 18.2764C7.86906 18.2921 7.90972 18.3002 7.95078 18.3002C7.99184 18.3002 8.0325 18.2921 8.07044 18.2764C8.10837 18.2607 8.14284 18.2376 8.17188 18.2086C8.20091 18.1796 8.22394 18.1451 8.23966 18.1072C8.25537 18.0692 8.26346 18.0286 8.26346 17.9875C8.26346 17.9464 8.25537 17.9058 8.23966 17.8678C8.22394 17.8299 8.20091 17.7954 8.17188 17.7664L6.1832 15.7777C6.15411 15.7488 6.13102 15.7144 6.11527 15.6764C6.09952 15.6385 6.09141 15.5979 6.09141 15.5568C6.09141 15.5158 6.09952 15.4751 6.11527 15.4372C6.13102 15.3993 6.15411 15.3649 6.1832 15.3359L6.625 14.8941C6.63972 14.8794 6.65581 14.866 6.67305 14.8543C6.73322 14.8146 6.80527 14.7968 6.87702 14.8041C6.94877 14.8113 7.01581 14.8431 7.0668 14.8941C7.06992 14.8969 7.07305 14.9 7.07617 14.9027L9.83984 17.448C9.87164 17.4773 9.89698 17.5129 9.91426 17.5525C9.93155 17.5921 9.94039 17.6349 9.94024 17.6781L9.9375 19Z" fill="#217C8F"/>
<path d="M22.7527 10.5625H22.1277C21.8792 10.5628 21.6409 10.6617 21.4652 10.8375C21.2894 11.0132 21.1906 11.2515 21.1902 11.5V14.1785C21.0628 14.1739 20.9357 14.1954 20.8168 14.2416C20.6979 14.2878 20.5897 14.3578 20.4988 14.4473L17.7402 16.9879C17.6446 17.076 17.5683 17.1829 17.5162 17.302C17.4641 17.4211 17.4373 17.5497 17.4375 17.6797L17.4402 19V22.125C17.4402 22.2079 17.4732 22.2874 17.5318 22.346C17.5904 22.4046 17.6699 22.4375 17.7527 22.4375H20.8777C20.9606 22.4375 21.0401 22.4046 21.0987 22.346C21.1573 22.2874 21.1902 22.2079 21.1902 22.125V21.4438C21.1905 21.3617 21.2227 21.2829 21.2801 21.2242L23.4227 19.0492C23.5946 18.8743 23.6908 18.6387 23.6902 18.3934V11.5C23.6899 11.2515 23.591 11.0132 23.4153 10.8375C23.2395 10.6617 23.0013 10.5628 22.7527 10.5625ZM23.0652 18.3934C23.0655 18.475 23.0336 18.5534 22.9766 18.6117L20.8352 20.7855C20.6616 20.9605 20.5645 21.1973 20.5652 21.4438V21.8125H18.0652V18.9992L18.0625 17.6781C18.0624 17.6348 18.0713 17.592 18.0887 17.5523C18.1061 17.5127 18.1315 17.4771 18.1633 17.4477L20.9266 14.9027C20.9297 14.9 20.9328 14.8969 20.9359 14.8941C20.9869 14.8431 21.054 14.8113 21.1257 14.8041C21.1975 14.7968 21.2695 14.8145 21.3297 14.8543C21.347 14.8659 21.3631 14.8793 21.3777 14.8941L21.8195 15.3359C21.8486 15.3649 21.8717 15.3993 21.8875 15.4372C21.9032 15.4751 21.9113 15.5158 21.9113 15.5568C21.9113 15.5979 21.9032 15.6385 21.8875 15.6764C21.8717 15.7144 21.8486 15.7488 21.8195 15.7777L19.8309 17.7664C19.7722 17.825 19.7393 17.9046 19.7393 17.9875C19.7393 18.0704 19.7722 18.15 19.8309 18.2086C19.8895 18.2672 19.969 18.3002 20.052 18.3002C20.1349 18.3002 20.2144 18.2672 20.273 18.2086L22.2617 16.2199C22.4376 16.044 22.5363 15.8055 22.5363 15.5568C22.5363 15.3081 22.4376 15.0696 22.2617 14.8938L21.8199 14.452C21.8185 14.4505 21.8169 14.4492 21.8152 14.448V11.5C21.8154 11.4172 21.8483 11.3377 21.9069 11.2792C21.9655 11.2206 22.0449 11.1876 22.1277 11.1875H22.7527C22.8356 11.1876 22.915 11.2206 22.9736 11.2792C23.0322 11.3377 23.0651 11.4172 23.0652 11.5V18.3934Z" fill="#217C8F"/>
<path d="M7.4375 13.6875H20.5625C20.6454 13.6875 20.7249 13.6546 20.7835 13.596C20.8421 13.5374 20.875 13.4579 20.875 13.375V5.875C20.875 5.79212 20.8421 5.71263 20.7835 5.65403C20.7249 5.59542 20.6454 5.5625 20.5625 5.5625H7.4375C7.35462 5.5625 7.27513 5.59542 7.21653 5.65403C7.15792 5.71263 7.125 5.79212 7.125 5.875V13.375C7.125 13.4579 7.15792 13.5374 7.21653 13.596C7.27513 13.6546 7.35462 13.6875 7.4375 13.6875ZM7.75 6.1875H20.25V13.0625H7.75V6.1875Z" fill="#217C8F"/>
<path d="M14 7.75C13.6292 7.75 13.2666 7.85997 12.9583 8.06599C12.65 8.27202 12.4096 8.56486 12.2677 8.90747C12.1258 9.25008 12.0887 9.62708 12.161 9.99079C12.2334 10.3545 12.412 10.6886 12.6742 10.9508C12.9364 11.213 13.2705 11.3916 13.6342 11.464C13.9979 11.5363 14.3749 11.4992 14.7175 11.3573C15.0601 11.2154 15.353 10.975 15.559 10.6667C15.765 10.3584 15.875 9.99584 15.875 9.625C15.8744 9.12789 15.6767 8.6513 15.3252 8.29979C14.9737 7.94828 14.4971 7.75056 14 7.75ZM14 10.875C13.7528 10.875 13.5111 10.8017 13.3055 10.6643C13.1 10.527 12.9398 10.3318 12.8452 10.1034C12.7505 9.87495 12.7258 9.62361 12.774 9.38114C12.8223 9.13866 12.9413 8.91593 13.1161 8.74112C13.2909 8.5663 13.5137 8.44725 13.7561 8.39902C13.9986 8.35079 14.2499 8.37554 14.4784 8.47015C14.7068 8.56476 14.902 8.72498 15.0393 8.93054C15.1767 9.1361 15.25 9.37777 15.25 9.625C15.2496 9.95641 15.1178 10.2741 14.8835 10.5085C14.6491 10.7428 14.3314 10.8746 14 10.875Z" fill="#217C8F"/>
<path d="M19.625 8.0625C19.2936 8.06213 18.9759 7.93031 18.7415 7.69597C18.5072 7.46163 18.3754 7.14391 18.375 6.8125C18.375 6.72962 18.3421 6.65013 18.2835 6.59153C18.2249 6.53292 18.1454 6.5 18.0625 6.5H9.9375C9.85462 6.5 9.77513 6.53292 9.71653 6.59153C9.65792 6.65013 9.625 6.72962 9.625 6.8125C9.62463 7.14391 9.49281 7.46163 9.25847 7.69597C9.02413 7.93031 8.70641 8.06213 8.375 8.0625C8.29212 8.0625 8.21263 8.09542 8.15403 8.15403C8.09542 8.21263 8.0625 8.29212 8.0625 8.375V10.875C8.0625 10.9579 8.09542 11.0374 8.15403 11.096C8.21263 11.1546 8.29212 11.1875 8.375 11.1875C8.70641 11.1879 9.02413 11.3197 9.25847 11.554C9.49281 11.7884 9.62463 12.1061 9.625 12.4375C9.625 12.5204 9.65792 12.5999 9.71653 12.6585C9.77513 12.7171 9.85462 12.75 9.9375 12.75H18.0625C18.1454 12.75 18.2249 12.7171 18.2835 12.6585C18.3421 12.5999 18.375 12.5204 18.375 12.4375C18.3754 12.1061 18.5072 11.7884 18.7415 11.554C18.9759 11.3197 19.2936 11.1879 19.625 11.1875C19.7079 11.1875 19.7874 11.1546 19.846 11.096C19.9046 11.0374 19.9375 10.9579 19.9375 10.875V8.375C19.9375 8.29212 19.9046 8.21263 19.846 8.15403C19.7874 8.09542 19.7079 8.0625 19.625 8.0625ZM19.3125 10.5886C18.9289 10.6541 18.575 10.8371 18.2998 11.1123C18.0246 11.3875 17.8416 11.7414 17.7761 12.125H10.2239C10.1584 11.7414 9.9754 11.3875 9.70019 11.1123C9.42498 10.8371 9.07114 10.6541 8.6875 10.5886V8.66145C9.07114 8.5959 9.42498 8.4129 9.70019 8.13769C9.9754 7.86248 10.1584 7.50864 10.2239 7.125H17.7761C17.8416 7.50864 18.0246 7.86248 18.2998 8.13769C18.575 8.4129 18.9289 8.5959 19.3125 8.66145V10.5886Z" fill="#217C8F"/>
<path d="M10 0.6H18V-0.6H10V0.6ZM27.4 10V18H28.6V10H27.4ZM18 27.4H10V28.6H18V27.4ZM0.6 18V10H-0.6V18H0.6ZM10 27.4C4.80852 27.4 0.6 23.1915 0.6 18H-0.6C-0.6 23.8542 4.14578 28.6 10 28.6V27.4ZM27.4 18C27.4 23.1915 23.1915 27.4 18 27.4V28.6C23.8542 28.6 28.6 23.8542 28.6 18H27.4ZM18 0.6C23.1915 0.6 27.4 4.80852 27.4 10H28.6C28.6 4.14578 23.8542 -0.6 18 -0.6V0.6ZM10 -0.6C4.14578 -0.6 -0.6 4.14578 -0.6 10H0.6C0.6 4.80852 4.80852 0.6 10 0.6V-0.6Z" fill="#217C8F"/>
</svg>
