<svg width="28" height="28" viewBox="0 0 28 28" fill="none" xmlns="http://www.w3.org/2000/svg">
<path d="M0 10C0 4.47715 4.47715 0 10 0H18C23.5228 0 28 4.47715 28 10V18C28 23.5228 23.5228 28 18 28H10C4.47715 28 0 23.5228 0 18V10Z" fill="#EB5757" fill-opacity="0.1"/>
<path d="M19.0958 15.0155C18.9111 14.973 18.7185 14.9782 18.5363 15.0305C18.3541 15.0829 18.1882 15.1807 18.0541 15.3147C17.9201 15.4488 17.8223 15.6147 17.77 15.7969C17.7177 15.9792 17.7125 16.1717 17.755 16.3564C17.8008 16.5608 17.9037 16.748 18.0518 16.8961C18.1999 17.0442 18.3871 17.1472 18.5914 17.193C18.6735 17.2112 18.7574 17.2204 18.8414 17.2205C19.1159 17.2211 19.3811 17.1207 19.5862 16.9383C19.7913 16.7559 19.9221 16.5043 19.9536 16.2316C19.985 15.9589 19.915 15.6842 19.7567 15.4599C19.5985 15.2356 19.3633 15.0774 19.0958 15.0155ZM19.2464 16.5071C19.1775 16.5762 19.092 16.6265 18.998 16.6532C18.9041 16.6798 18.8049 16.6818 18.7099 16.6591C18.6072 16.6353 18.5134 16.5831 18.439 16.5085C18.3645 16.4339 18.3126 16.3399 18.2889 16.2372C18.2661 16.1423 18.2681 16.043 18.2947 15.9491C18.3213 15.8551 18.3716 15.7696 18.4408 15.7007C18.4935 15.6476 18.5563 15.6055 18.6255 15.5769C18.6946 15.5484 18.7688 15.5339 18.8436 15.5344C18.8889 15.5346 18.9339 15.5399 18.978 15.55C19.0806 15.5737 19.1746 15.6258 19.2492 15.7002C19.3237 15.7746 19.3759 15.8684 19.3999 15.971C19.4223 16.066 19.42 16.1651 19.3932 16.259C19.3663 16.3528 19.3158 16.4382 19.2464 16.5069V16.5071Z" fill="#EB5757"/>
<path d="M9.40828 15.0155C9.22354 14.973 9.03103 14.9782 8.84884 15.0305C8.66664 15.0829 8.50073 15.1806 8.36669 15.3147C8.23265 15.4487 8.13487 15.6146 8.08254 15.7968C8.0302 15.979 8.02503 16.1715 8.0675 16.3563C8.11329 16.5607 8.21624 16.7479 8.36436 16.896C8.51247 17.0442 8.69965 17.1472 8.90406 17.193C8.98616 17.2112 9.06998 17.2204 9.15406 17.2205C9.42855 17.2211 9.69364 17.1206 9.89875 16.9382C10.1039 16.7558 10.2346 16.5042 10.266 16.2315C10.2975 15.9589 10.2274 15.6842 10.0692 15.4599C9.91097 15.2356 9.6757 15.0774 9.40828 15.0155ZM9.55906 16.5071C9.49017 16.5763 9.40463 16.6266 9.31066 16.6532C9.2167 16.6799 9.11747 16.6819 9.0225 16.6591C8.9199 16.6351 8.82607 16.5829 8.75164 16.5084C8.67721 16.4338 8.62516 16.3399 8.60141 16.2372C8.57866 16.1422 8.5807 16.043 8.60732 15.9491C8.63394 15.8551 8.68426 15.7696 8.75344 15.7007C8.80615 15.6475 8.86892 15.6055 8.93809 15.5769C9.00726 15.5484 9.08143 15.5339 9.15625 15.5344C9.20148 15.5346 9.24655 15.5399 9.29063 15.55C9.39314 15.5738 9.48693 15.6258 9.56134 15.7003C9.63575 15.7747 9.6878 15.8685 9.71156 15.971C9.7342 16.0659 9.73206 16.165 9.70535 16.2589C9.67865 16.3527 9.62827 16.4381 9.55906 16.5069V16.5071Z" fill="#EB5757"/>
<path d="M22.2991 12.7719C21.3459 12.4985 19.6819 12.1735 17.1356 12.1625L15.7606 10.3742C15.6178 10.1898 15.4348 10.0403 15.2255 9.93729C15.0163 9.83423 14.7862 9.78028 14.553 9.77954H9.59984C9.18179 9.77879 8.77421 9.91033 8.43547 10.1553L4.93391 12.6767C4.89877 12.7021 4.87016 12.7354 4.85041 12.774C4.83066 12.8126 4.82035 12.8553 4.82031 12.8986V15.4792C4.8206 15.7174 4.91535 15.9458 5.08378 16.1142C5.25221 16.2826 5.48056 16.3774 5.71875 16.3777H7.06031C7.06375 16.4055 7.06437 16.433 7.06906 16.4606C7.14371 16.8925 7.35012 17.2906 7.65999 17.6005C7.96986 17.9104 8.36801 18.1169 8.79984 18.1916C8.91864 18.2111 9.03883 18.2209 9.15922 18.221C9.67276 18.2209 10.1687 18.0336 10.5541 17.6943C10.9395 17.3549 11.188 16.8866 11.253 16.3772H16.7478C16.7512 16.405 16.7519 16.4325 16.7566 16.4602C16.8311 16.8921 17.0375 17.2904 17.3473 17.6004C17.6572 17.9104 18.0554 18.1169 18.4873 18.1916C18.6061 18.2111 18.7263 18.2209 18.8467 18.221C19.3603 18.221 19.8563 18.0338 20.2417 17.6944C20.6272 17.355 20.8756 16.8867 20.9405 16.3772H22.9062C22.9788 16.3772 23.0483 16.3484 23.0996 16.2971C23.1509 16.2458 23.1797 16.1763 23.1797 16.1038V13.9375C23.1785 13.6742 23.0921 13.4183 22.9334 13.2081C22.7746 12.998 22.5521 12.845 22.2991 12.7719ZM22.6328 14.8314H22.2508C22.199 14.8314 22.1493 14.8108 22.1127 14.7742C22.076 14.7376 22.0555 14.6879 22.0555 14.6361V14.3783H22.6328V14.8314ZM5.36719 13.9283H5.88516L5.74219 14.6489C5.73185 14.7003 5.70407 14.7465 5.66355 14.7798C5.62303 14.8131 5.57226 14.8313 5.51984 14.8314H5.36719V13.9283ZM10.2656 17.2141C10.0831 17.3967 9.85835 17.5314 9.61129 17.6064C9.36423 17.6814 9.1025 17.6943 8.84927 17.6439C8.59604 17.5936 8.35915 17.4815 8.15958 17.3177C7.96 17.1539 7.80392 16.9434 7.70515 16.7049C7.60638 16.4663 7.56798 16.2071 7.59335 15.9502C7.61872 15.6932 7.70707 15.4465 7.85058 15.2319C7.99409 15.0173 8.18833 14.8413 8.41608 14.7197C8.64383 14.5981 8.89806 14.5346 9.15625 14.5347C9.24608 14.5347 9.33575 14.5421 9.42438 14.5567C9.70784 14.6058 9.97236 14.7318 10.1891 14.921C10.4058 15.1102 10.5663 15.3553 10.6531 15.6296C10.7399 15.9038 10.7497 16.1967 10.6814 16.4761C10.613 16.7556 10.4692 17.0108 10.2656 17.2141ZM19.9531 17.2141C19.7706 17.3966 19.5459 17.5313 19.2989 17.6062C19.0518 17.6811 18.7902 17.694 18.537 17.6436C18.2838 17.5932 18.047 17.4812 17.8475 17.3174C17.648 17.1536 17.4919 16.9431 17.3932 16.7047C17.2944 16.4662 17.256 16.207 17.2814 15.9501C17.3067 15.6932 17.395 15.4466 17.5385 15.232C17.6819 15.0174 17.8761 14.8415 18.1038 14.7198C18.3315 14.5982 18.5856 14.5346 18.8438 14.5347C18.9336 14.5347 19.0234 14.5421 19.112 14.5567C19.3955 14.6058 19.66 14.7318 19.8767 14.921C20.0933 15.1103 20.2538 15.3554 20.3407 15.6296C20.4275 15.9039 20.4372 16.1967 20.3689 16.4762C20.3005 16.7556 20.1567 17.0108 19.9531 17.2141ZM20.9392 15.8308C20.9358 15.8031 20.9352 15.7756 20.9305 15.7478C20.8653 15.365 20.6961 15.0075 20.4413 14.7144C20.1865 14.4213 19.856 14.204 19.4859 14.0862C19.1159 13.9684 18.7206 13.9547 18.3432 14.0466C17.9659 14.1385 17.6212 14.3324 17.3467 14.6072C17.0162 14.9367 16.8052 15.3672 16.7473 15.8303H11.2522C11.2488 15.8027 11.2481 15.7752 11.2434 15.7474C11.1783 15.3645 11.009 15.007 10.7543 14.7139C10.4995 14.4208 10.169 14.2035 9.79891 14.0857C9.42885 13.9679 9.03353 13.9542 8.65621 14.0461C8.2789 14.138 7.93414 14.332 7.65969 14.6067C7.32916 14.9362 7.1182 15.3667 7.06031 15.8299H5.71875C5.62554 15.8298 5.53616 15.7927 5.47025 15.7268C5.40434 15.6609 5.36727 15.5715 5.36719 15.4783V15.3774H5.51984C5.69877 15.377 5.87206 15.3148 6.01035 15.2012C6.14864 15.0877 6.24341 14.9298 6.27859 14.7544L6.48625 13.7075C6.49413 13.6679 6.49312 13.627 6.48328 13.5877C6.47345 13.5485 6.45504 13.512 6.42937 13.4808C6.40371 13.4495 6.37144 13.4244 6.33488 13.4071C6.29833 13.3898 6.25839 13.3809 6.21797 13.381H5.36719V13.0388L8.755 10.5986C9.00077 10.4209 9.29643 10.3256 9.59969 10.3261H14.5528C14.7023 10.3266 14.8498 10.3611 14.9839 10.4272C15.1181 10.4933 15.2354 10.5891 15.3269 10.7074L16.7841 12.602C16.8096 12.6353 16.8425 12.6622 16.8801 12.6807C16.9177 12.6992 16.959 12.7088 17.0009 12.7088C19.6948 12.7088 21.3823 13.0777 22.1483 13.2975C22.2699 13.3326 22.379 13.4013 22.4632 13.4958C22.5474 13.5903 22.6032 13.7066 22.6241 13.8314H21.7822C21.7097 13.8314 21.6401 13.8602 21.5888 13.9115C21.5376 13.9628 21.5088 14.0323 21.5088 14.1049V14.6361C21.509 14.8329 21.5872 15.0215 21.7264 15.1607C21.8655 15.2998 22.0542 15.3781 22.2509 15.3783H22.633V15.8314L20.9392 15.8308Z" fill="#EB5757"/>
<path d="M14.9862 10.9686C14.935 10.9024 14.8693 10.8488 14.7942 10.8118C14.7191 10.7748 14.6365 10.7555 14.5528 10.7552H9.59968C9.3865 10.7548 9.17866 10.8218 9.00593 10.9468L7.25718 12.2069C7.21025 12.2407 7.17524 12.2885 7.1572 12.3435C7.13915 12.3984 7.139 12.4577 7.15677 12.5128C7.17453 12.5678 7.2093 12.6158 7.25606 12.6498C7.30283 12.6839 7.35918 12.7022 7.41703 12.7022C9.57973 12.7314 11.734 12.9791 13.8469 13.4414C13.888 13.4512 13.9308 13.4512 13.9719 13.4414L16.0283 12.9571C16.0728 12.9466 16.1139 12.9252 16.148 12.8947C16.1821 12.8642 16.208 12.8257 16.2233 12.7827C16.2386 12.7396 16.2429 12.6934 16.2357 12.6482C16.2286 12.6031 16.2102 12.5605 16.1823 12.5243L14.9862 10.9686ZM9.32578 11.3905C9.40552 11.3329 9.50144 11.3019 9.59984 11.3021H11.5744V12.4763C10.4705 12.315 9.35892 12.2126 8.24421 12.1696L9.32578 11.3905ZM13.9086 12.8941C13.708 12.8493 13.0492 12.7066 12.1212 12.5591V11.3025H14.5528L15.4903 12.5222L13.9086 12.8941Z" fill="#EB5757"/>
<path d="M10 0.6H18V-0.6H10V0.6ZM27.4 10V18H28.6V10H27.4ZM18 27.4H10V28.6H18V27.4ZM0.6 18V10H-0.6V18H0.6ZM10 27.4C4.80852 27.4 0.6 23.1915 0.6 18H-0.6C-0.6 23.8542 4.14578 28.6 10 28.6V27.4ZM27.4 18C27.4 23.1915 23.1915 27.4 18 27.4V28.6C23.8542 28.6 28.6 23.8542 28.6 18H27.4ZM18 0.6C23.1915 0.6 27.4 4.80852 27.4 10H28.6C28.6 4.14578 23.8542 -0.6 18 -0.6V0.6ZM10 -0.6C4.14578 -0.6 -0.6 4.14578 -0.6 10H0.6C0.6 4.80852 4.80852 0.6 10 0.6V-0.6Z" fill="#EB5757"/>
</svg>
