<svg width="28" height="28" viewBox="0 0 28 28" fill="none" xmlns="http://www.w3.org/2000/svg">
<path d="M0 10C0 4.47715 4.47715 0 10 0H18C23.5228 0 28 4.47715 28 10V18C28 23.5228 23.5228 28 18 28H10C4.47715 28 0 23.5228 0 18V10Z" fill="#9457E1" fill-opacity="0.16"/>
<path d="M21.5 9.30501V8.06247C21.5 7.97959 21.4671 7.90011 21.4085 7.8415C21.3499 7.7829 21.2704 7.74997 21.1875 7.74997H20.0321L18.7672 6.90669C18.9451 6.7852 19.0885 6.61981 19.1836 6.42657C19.2787 6.23332 19.3222 6.01877 19.31 5.80374C19.2978 5.58871 19.2302 5.38049 19.1138 5.19927C18.9974 5.01806 18.8361 4.87001 18.6456 4.76947C18.4552 4.66894 18.2419 4.61933 18.0266 4.62547C17.8113 4.63161 17.6013 4.69329 17.4169 4.80452C17.2324 4.91575 17.0799 5.07275 16.974 5.2603C16.8681 5.44786 16.8125 5.65959 16.8125 5.87497C16.8125 5.95785 16.8454 6.03734 16.904 6.09594C16.9626 6.15455 17.0421 6.18747 17.125 6.18747C17.2079 6.18747 17.2874 6.15455 17.346 6.09594C17.4046 6.03734 17.4375 5.95785 17.4375 5.87497C17.4375 5.75136 17.4742 5.63052 17.5428 5.52774C17.6115 5.42496 17.7091 5.34485 17.8233 5.29755C17.9375 5.25024 18.0632 5.23787 18.1844 5.26198C18.3057 5.2861 18.417 5.34562 18.5044 5.43303C18.5919 5.52044 18.6514 5.6318 18.6755 5.75304C18.6996 5.87428 18.6872 5.99995 18.6399 6.11415C18.5926 6.22835 18.5125 6.32597 18.4097 6.39464C18.307 6.46332 18.1861 6.49997 18.0625 6.49997C18.0008 6.49996 17.9405 6.51823 17.8891 6.55247L16.0929 7.74997H14.9375C14.9336 7.74997 14.93 7.7504 14.9262 7.75056C14.9171 7.75056 14.9081 7.74997 14.8991 7.74997H13.4696L12.2047 6.90669C12.3825 6.78521 12.526 6.61982 12.6211 6.42657C12.7162 6.23333 12.7597 6.01878 12.7475 5.80374C12.7353 5.58871 12.6677 5.38048 12.5513 5.19926C12.4349 5.01805 12.2736 4.86999 12.0831 4.76945C11.8927 4.66891 11.6794 4.61931 11.4641 4.62545C11.2488 4.63159 11.0388 4.69326 10.8543 4.8045C10.6699 4.91573 10.5173 5.07274 10.4115 5.26029C10.3056 5.44785 10.25 5.65959 10.25 5.87497C10.25 5.95785 10.2829 6.03734 10.3415 6.09594C10.4001 6.15455 10.4796 6.18747 10.5625 6.18747C10.6454 6.18747 10.7249 6.15455 10.7835 6.09594C10.8421 6.03734 10.875 5.95785 10.875 5.87497C10.875 5.75136 10.9117 5.63052 10.9803 5.52774C11.049 5.42496 11.1466 5.34485 11.2608 5.29755C11.375 5.25024 11.5007 5.23787 11.6219 5.26198C11.7432 5.2861 11.8545 5.34562 11.9419 5.43303C12.0293 5.52044 12.0889 5.6318 12.113 5.75304C12.1371 5.87428 12.1247 5.99995 12.0774 6.11415C12.0301 6.22835 11.95 6.32597 11.8472 6.39464C11.7445 6.46332 11.6236 6.49997 11.5 6.49997C11.4383 6.49996 11.378 6.51823 11.3266 6.55247L9.53039 7.74997H8.10094C7.7524 7.74962 7.41379 7.86599 7.13909 8.0805C6.8644 8.29502 6.66944 8.59534 6.58531 8.93357C6.58284 8.94328 6.58086 8.95311 6.57937 8.96306L5.87859 13.6412C5.87625 13.6565 5.87505 13.672 5.875 13.6875V19.9375C5.875 20.0204 5.90792 20.0998 5.96653 20.1584C6.02513 20.217 6.10462 20.25 6.1875 20.25H8.0625C8.14538 20.25 8.22487 20.217 8.28347 20.1584C8.34208 20.0998 8.375 20.0204 8.375 19.9375V19.625H10.25C10.3329 19.625 10.4124 19.592 10.471 19.5334C10.5296 19.4748 10.5625 19.3954 10.5625 19.3125V19H12.4375V19.3125C12.4375 19.3954 12.4704 19.4748 12.529 19.5334C12.5876 19.592 12.6671 19.625 12.75 19.625H14.1559L14.0003 23.0483C13.9984 23.0905 14.0051 23.1326 14.0199 23.1722C14.0347 23.2117 14.0574 23.2478 14.0866 23.2784C14.1157 23.3089 14.1508 23.3332 14.1896 23.3498C14.2285 23.3664 14.2703 23.375 14.3125 23.375H21.8125C21.8547 23.375 21.8965 23.3664 21.9354 23.3498C21.9742 23.3332 22.0093 23.3089 22.0384 23.2784C22.0676 23.2478 22.0903 23.2117 22.1051 23.1722C22.1199 23.1326 22.1266 23.0905 22.1247 23.0483L21.5 9.30501ZM20.9299 10.5284C20.6868 10.4588 20.5087 10.2813 20.3894 9.99114C20.3419 9.87301 20.3067 9.75031 20.2844 9.62497H20.8889L20.9299 10.5284ZM20.875 8.99997H16.4263L16.4208 8.96302C16.4193 8.9531 16.4173 8.94327 16.4148 8.93353C16.3644 8.73148 16.2741 8.54155 16.1492 8.37493H20.875V8.99997ZM18.0625 7.18806L18.9054 7.74997H17.2196L18.0625 7.18806ZM14.2607 8.37497L14.1162 9.31489C14.0988 9.42741 14.0485 9.53228 13.9717 9.61633C13.8949 9.70037 13.795 9.75985 13.6845 9.78729C13.574 9.81474 13.4578 9.80892 13.3506 9.77058C13.2434 9.73223 13.1499 9.66307 13.0819 9.57177C13.3962 9.24333 13.6002 8.82493 13.6653 8.37497H14.2607ZM9.96895 8.37497H13.0312C12.9593 8.72798 12.7677 9.04529 12.4886 9.27319C12.2096 9.50109 11.8605 9.62558 11.5002 9.62558C11.1399 9.62558 10.7908 9.50109 10.5117 9.27319C10.2327 9.04529 10.0411 8.72798 9.96914 8.37497H9.96895ZM11.5 7.18806L12.3429 7.74997H10.6571L11.5 7.18806ZM9.33473 8.37497C9.39982 8.82494 9.60381 9.24334 9.9182 9.57177C9.85017 9.66307 9.75668 9.73223 9.64947 9.77058C9.54226 9.80892 9.42612 9.81474 9.31561 9.78729C9.20511 9.75985 9.10518 9.70037 9.02837 9.61633C8.95155 9.53228 8.90128 9.42741 8.88387 9.31489L8.73926 8.37497H9.33473ZM9.9375 19H8.375V13.0625C8.375 12.9796 8.34208 12.9001 8.28347 12.8415C8.22487 12.7829 8.14538 12.75 8.0625 12.75C7.97962 12.75 7.90013 12.7829 7.84153 12.8415C7.78292 12.9001 7.75 12.9796 7.75 13.0625V19.625H6.5V13.7109L7.19496 9.07157C7.24785 8.87172 7.36542 8.69499 7.52931 8.56898C7.6932 8.44296 7.8942 8.37474 8.10094 8.37497H8.10687L8.26613 9.41013C8.30205 9.66344 8.41912 9.89828 8.59977 10.0794C8.78042 10.2606 9.01492 10.3783 9.26813 10.415C9.49451 10.4519 9.72674 10.4235 9.9375 10.3329V19ZM10.5625 18.375V10.0383C10.8554 10.1777 11.1757 10.25 11.5 10.25C11.8243 10.25 12.1446 10.1777 12.4375 10.0383V18.375H10.5625ZM13.0625 10.3328C13.2733 10.4233 13.5055 10.4518 13.7319 10.4149C13.9851 10.3782 14.2196 10.2605 14.4002 10.0794C14.5809 9.89823 14.6979 9.66341 14.7339 9.41013L14.8931 8.37497H14.8991C15.1058 8.37474 15.3068 8.44296 15.4707 8.56898C15.6346 8.69499 15.7521 8.87172 15.805 9.07157L16.5 13.7109V19.625H15.25V13.0625C15.25 12.9796 15.2171 12.9001 15.1585 12.8415C15.0999 12.7829 15.0204 12.75 14.9375 12.75C14.8546 12.75 14.7751 12.7829 14.7165 12.8415C14.6579 12.9001 14.625 12.9796 14.625 13.0625V19H13.0625V10.3328ZM17.75 22.75H14.6395L14.7558 20.1914C14.8087 20.2295 14.8723 20.25 14.9375 20.25H16.8125C16.8954 20.25 16.9749 20.217 17.0335 20.1584C17.0921 20.0998 17.125 20.0204 17.125 19.9375V13.6875C17.125 13.672 17.1239 13.6565 17.1216 13.6411L16.5199 9.62497H17.75V22.75ZM18.375 22.75V9.62497H19.6512C19.679 9.8252 19.7301 10.0215 19.8036 10.2098C20.0249 10.763 20.4305 11.098 20.9592 11.1718L21.4855 22.75H18.375Z" fill="#9457E1"/>
<path d="M10 0.6H18V-0.6H10V0.6ZM27.4 10V18H28.6V10H27.4ZM18 27.4H10V28.6H18V27.4ZM0.6 18V10H-0.6V18H0.6ZM10 27.4C4.80852 27.4 0.6 23.1915 0.6 18H-0.6C-0.6 23.8542 4.14578 28.6 10 28.6V27.4ZM27.4 18C27.4 23.1915 23.1915 27.4 18 27.4V28.6C23.8542 28.6 28.6 23.8542 28.6 18H27.4ZM18 0.6C23.1915 0.6 27.4 4.80852 27.4 10H28.6C28.6 4.14578 23.8542 -0.6 18 -0.6V0.6ZM10 -0.6C4.14578 -0.6 -0.6 4.14578 -0.6 10H0.6C0.6 4.80852 4.80852 0.6 10 0.6V-0.6Z" fill="#9457E1"/>
</svg>
