<svg width="28" height="28" viewBox="0 0 28 28" fill="none" xmlns="http://www.w3.org/2000/svg">
<path d="M0 10C0 4.47715 4.47715 0 10 0H18C23.5228 0 28 4.47715 28 10V18C28 23.5228 23.5228 28 18 28H10C4.47715 28 0 23.5228 0 18V10Z" fill="#E157AA" fill-opacity="0.16"/>
<path d="M17.75 4.3125H10.25C9.83574 4.31297 9.43858 4.47773 9.14566 4.77066C8.85273 5.06358 8.68797 5.46074 8.6875 5.875V22.125C8.68797 22.5393 8.85273 22.9364 9.14566 23.2293C9.43858 23.5223 9.83574 23.687 10.25 23.6875H17.75C18.1643 23.687 18.5614 23.5223 18.8543 23.2293C19.1473 22.9364 19.312 22.5393 19.3125 22.125V5.875C19.312 5.46074 19.1473 5.06358 18.8543 4.77066C18.5614 4.47773 18.1643 4.31297 17.75 4.3125ZM16.1188 4.9375L15.9313 5.875H12.0687L11.8812 4.9375H16.1188ZM18.6875 22.125C18.6872 22.3736 18.5884 22.6118 18.4126 22.7876C18.2368 22.9634 17.9986 23.0622 17.75 23.0625H10.25C10.0014 23.0622 9.76315 22.9634 9.5874 22.7876C9.41164 22.6118 9.31278 22.3736 9.3125 22.125V5.875C9.31278 5.62645 9.41164 5.38815 9.5874 5.2124C9.76315 5.03664 10.0014 4.93778 10.25 4.9375H11.2438L11.5061 6.24879C11.5202 6.31963 11.5585 6.38337 11.6144 6.42917C11.6702 6.47498 11.7403 6.5 11.8125 6.5H16.1875C16.2597 6.5 16.3298 6.47498 16.3856 6.42917C16.4415 6.38337 16.4798 6.31963 16.4939 6.24879L16.7562 4.9375H17.75C17.9986 4.93778 18.2368 5.03664 18.4126 5.2124C18.5884 5.38815 18.6872 5.62645 18.6875 5.875V22.125Z" fill="#E157AA"/>
<path d="M12.125 21.8125H10.25C10.1671 21.8125 10.0876 21.8454 10.029 21.904C9.97042 21.9626 9.9375 22.0421 9.9375 22.125C9.9375 22.2079 9.97042 22.2874 10.029 22.346C10.0876 22.4046 10.1671 22.4375 10.25 22.4375H12.125C12.2079 22.4375 12.2874 22.4046 12.346 22.346C12.4046 22.2874 12.4375 22.2079 12.4375 22.125C12.4375 22.0421 12.4046 21.9626 12.346 21.904C12.2874 21.8454 12.2079 21.8125 12.125 21.8125Z" fill="#E157AA"/>
<path d="M13.375 21.8125H13.0625C12.9796 21.8125 12.9001 21.8454 12.8415 21.904C12.7829 21.9626 12.75 22.0421 12.75 22.125C12.75 22.2079 12.7829 22.2874 12.8415 22.346C12.9001 22.4046 12.9796 22.4375 13.0625 22.4375H13.375C13.4579 22.4375 13.5374 22.4046 13.596 22.346C13.6546 22.2874 13.6875 22.2079 13.6875 22.125C13.6875 22.0421 13.6546 21.9626 13.596 21.904C13.5374 21.8454 13.4579 21.8125 13.375 21.8125Z" fill="#E157AA"/>
<path d="M10 0.6H18V-0.6H10V0.6ZM27.4 10V18H28.6V10H27.4ZM18 27.4H10V28.6H18V27.4ZM0.6 18V10H-0.6V18H0.6ZM10 27.4C4.80852 27.4 0.6 23.1915 0.6 18H-0.6C-0.6 23.8542 4.14578 28.6 10 28.6V27.4ZM27.4 18C27.4 23.1915 23.1915 27.4 18 27.4V28.6C23.8542 28.6 28.6 23.8542 28.6 18H27.4ZM18 0.6C23.1915 0.6 27.4 4.80852 27.4 10H28.6C28.6 4.14578 23.8542 -0.6 18 -0.6V0.6ZM10 -0.6C4.14578 -0.6 -0.6 4.14578 -0.6 10H0.6C0.6 4.80852 4.80852 0.6 10 0.6V-0.6Z" fill="#E157AA"/>
</svg>
