<svg width="28" height="28" viewBox="0 0 28 28" fill="none" xmlns="http://www.w3.org/2000/svg">
<path d="M0 10C0 4.47715 4.47715 0 10 0H18C23.5228 0 28 4.47715 28 10V18C28 23.5228 23.5228 28 18 28H10C4.47715 28 0 23.5228 0 18V10Z" fill="#FFBD14" fill-opacity="0.1"/>
<g clip-path="url(#clip0)">
<path d="M18.8668 12.025L20.0419 11.9504C20.0439 11.9502 20.046 11.9501 20.0481 11.9499C20.8856 11.8792 21.6372 11.4396 22.1105 10.7437L23.0395 9.37809C23.8481 8.18924 24.1613 6.75333 23.9213 5.335C23.8741 5.05644 23.7319 4.79975 23.5211 4.61246C23.31 4.42502 23.0387 4.31433 22.757 4.30088C21.3224 4.23208 19.9377 4.71597 18.8567 5.66279L17.615 6.75058C16.9822 7.30479 16.6367 8.10515 16.6669 8.94679C16.6671 8.94878 16.6671 8.95092 16.6673 8.95306L16.7342 10.1307C16.7603 10.5899 16.5923 11.0429 16.2742 11.3728L6.57293 21.3584C6.31322 21.6298 6.1791 22.0021 6.19542 22.4068C6.21343 22.8523 6.41744 23.2898 6.74123 23.5774C7.03374 23.8372 7.43581 23.9852 7.83773 23.9852C7.88076 23.9852 7.92379 23.9835 7.96667 23.98C8.36965 23.9477 8.72259 23.7697 8.96154 23.4771L17.6907 12.6323C17.9801 12.2754 18.4089 12.0541 18.8668 12.025ZM17.2247 12.2543L8.4963 23.0983C8.36294 23.2616 8.15786 23.3622 7.91891 23.3813C7.63464 23.404 7.34319 23.3093 7.13903 23.1279C6.93487 22.9465 6.80608 22.6679 6.79464 22.3825C6.78487 22.1426 6.85979 21.9265 7.00414 21.7758L16.7046 11.7909C17.1395 11.3401 17.3684 10.7226 17.333 10.0967L17.266 8.92203C17.2433 8.26324 17.5141 7.63686 18.0096 7.20282L19.2513 6.11503C20.2151 5.27094 21.4501 4.83996 22.7285 4.90081C22.8741 4.90784 23.0142 4.96502 23.1233 5.06195C23.2324 5.15872 23.3058 5.29143 23.3302 5.4353C23.5441 6.69982 23.2649 7.97979 22.544 9.0396L21.6151 10.4053C21.2444 10.9502 20.6562 11.2947 20.0007 11.3511L18.8288 11.4254C18.2044 11.4651 17.62 11.7669 17.2247 12.2543Z" fill="#FFBD14"/>
<path d="M23.4461 21.2826L16.9414 15.3465C16.819 15.2347 16.6295 15.2436 16.5178 15.3662C16.4064 15.4888 16.4152 15.6789 16.5376 15.7906L23.0406 21.7254C23.1954 21.8686 23.2831 22.0798 23.2878 22.3198C23.2935 22.6054 23.1816 22.8911 22.9886 23.0845C22.7957 23.2778 22.511 23.3902 22.2253 23.3843C21.9858 23.3796 21.7751 23.2917 21.6336 23.1383L15.8374 16.7624C15.7258 16.6396 15.5362 16.6309 15.4138 16.7425C15.2914 16.8543 15.2826 17.0443 15.3941 17.1669L21.1917 23.5444C21.4465 23.8205 21.8094 23.9771 22.2136 23.985C22.2241 23.9852 22.2345 23.9853 22.245 23.9853C22.6795 23.9853 23.1139 23.8088 23.4125 23.5094C23.7186 23.2027 23.896 22.7537 23.8872 22.308C23.8793 21.903 23.7232 21.5395 23.4461 21.2826Z" fill="#FFBD14"/>
<path d="M7.61754 11.9681C8.11376 12.4262 8.75844 12.6873 9.43288 12.7035C9.43502 12.7037 9.43715 12.7037 9.43914 12.7037L10.6165 12.7073C11.0755 12.7087 11.5166 12.9039 11.8262 13.242L12.3449 13.8124C12.4041 13.8775 12.4851 13.9105 12.5666 13.9105C12.6386 13.9105 12.7109 13.8847 12.7683 13.8323C12.8908 13.7205 12.8997 13.5305 12.7881 13.4079L12.2687 12.8367C11.8458 12.3746 11.2443 12.1086 10.6185 12.1065L9.44433 12.1028C8.92263 12.0895 8.42382 11.8894 8.03731 11.5388L4.62528 7.47479C4.59049 7.4332 4.59309 7.37296 4.63139 7.33459C4.65763 7.30814 4.68846 7.30432 4.70448 7.30432C4.7205 7.30432 4.75132 7.30814 4.77772 7.33459L7.8835 10.4466C8.19051 10.7542 8.69008 10.7542 8.99709 10.4464L9.36208 10.0809V10.0807L10.0101 9.43143C10.0101 9.43143 10.0103 9.43143 10.0103 9.43127L10.0104 9.43112L10.3753 9.06557C10.6823 8.75796 10.6823 8.25741 10.3753 7.94981L7.26949 4.83795C7.2292 4.79759 7.2292 4.7317 7.26949 4.69134C7.30779 4.65296 7.36791 4.65036 7.40941 4.68522L11.4655 8.10407C11.8155 8.49118 12.0153 8.99111 12.0286 9.51368L12.0321 10.6903C12.0342 11.3171 12.2999 11.9198 12.7616 12.3445L13.3173 12.8517C13.4398 12.9634 13.6294 12.9545 13.7409 12.8319C13.8523 12.7092 13.8434 12.5193 13.7211 12.4075L13.1663 11.9012C12.828 11.5902 12.6333 11.148 12.6317 10.6883L12.6281 9.50864C12.6281 9.50649 12.6281 9.50435 12.6279 9.50221C12.6118 8.82646 12.3511 8.18051 11.894 7.68332C11.8854 7.674 11.8763 7.66513 11.8665 7.65687L7.7953 4.22549C7.51393 3.98821 7.10561 4.00595 6.8456 4.26646C6.57139 4.5412 6.57139 4.98809 6.8456 5.26267L9.95138 8.37468C10.0246 8.44806 10.0246 8.56747 9.95138 8.64085L9.79833 8.79404L6.33687 5.32597C6.21983 5.20855 6.03001 5.20855 5.91298 5.32597C5.79594 5.44323 5.79594 5.63342 5.91298 5.75069L9.37444 9.21892L9.15014 9.44351L5.68867 5.97543C5.57164 5.85817 5.38182 5.85817 5.26478 5.97543C5.14759 6.09269 5.14759 6.28288 5.26478 6.40015L8.72609 9.86838L8.5732 10.0217C8.49996 10.0951 8.38079 10.0951 8.30754 10.0217L5.20161 6.90987C5.06886 6.77686 4.89231 6.70347 4.70448 6.70347C4.51664 6.70347 4.3401 6.77686 4.20734 6.90987C3.94733 7.17039 3.92979 7.57951 4.16645 7.86159L7.59129 11.9406C7.59938 11.9504 7.60823 11.9596 7.61754 11.9681Z" fill="#FFBD14"/>
</g>
<path d="M10 0.6H18V-0.6H10V0.6ZM27.4 10V18H28.6V10H27.4ZM18 27.4H10V28.6H18V27.4ZM0.6 18V10H-0.6V18H0.6ZM10 27.4C4.80852 27.4 0.6 23.1915 0.6 18H-0.6C-0.6 23.8542 4.14578 28.6 10 28.6V27.4ZM27.4 18C27.4 23.1915 23.1915 27.4 18 27.4V28.6C23.8542 28.6 28.6 23.8542 28.6 18H27.4ZM18 0.6C23.1915 0.6 27.4 4.80852 27.4 10H28.6C28.6 4.14578 23.8542 -0.6 18 -0.6V0.6ZM10 -0.6C4.14578 -0.6 -0.6 4.14578 -0.6 10H0.6C0.6 4.80852 4.80852 0.6 10 0.6V-0.6Z" fill="#FFBD14"/>
<defs>
<clipPath id="clip0">
<rect width="20" height="20" fill="white" transform="translate(4 4)"/>
</clipPath>
</defs>
</svg>
