<svg width="28" height="28" viewBox="0 0 28 28" fill="none" xmlns="http://www.w3.org/2000/svg">
<rect x="0.3" y="0.3" width="27.4" height="27.4" rx="9.7" fill="#AFE768" fill-opacity="0.16"/>
<g clip-path="url(#clip0)">
<path d="M8.16147 9.3833C8.16147 8.76701 7.66005 8.26562 7.0438 8.26562C6.77341 8.26562 6.5194 8.36053 6.31939 8.53167C6.20373 8.49221 6.08167 8.47181 5.95801 8.47181C5.34171 8.47181 4.84033 8.97319 4.84033 9.58949C4.84033 10.0652 5.14694 10.485 5.58146 10.6417C5.71247 11.1163 6.15005 11.4631 6.65897 11.4631C7.27526 11.4631 7.77664 10.9617 7.77664 10.3454C7.77664 10.3074 7.77473 10.2695 7.7709 10.2319C8.01581 10.0217 8.16147 9.71237 8.16147 9.3833ZM7.30363 9.84697L7.09764 9.96279L7.16715 10.1886C7.1827 10.2392 7.19063 10.2919 7.19063 10.3453C7.19063 10.6385 6.95213 10.8769 6.65905 10.8769C6.38167 10.8769 6.14888 10.6605 6.12911 10.3841L6.11227 10.1495L5.87955 10.1152C5.62128 10.0771 5.4265 9.85104 5.4265 9.58941C5.4265 9.29628 5.665 9.05782 5.95808 9.05782C6.05592 9.05782 6.15142 9.08455 6.23429 9.13511L6.46017 9.27292L6.62025 9.06224C6.72196 8.92838 6.87633 8.85164 7.04388 8.85164C7.337 8.85164 7.57546 9.09014 7.57546 9.38322C7.57542 9.57503 7.47129 9.75273 7.30363 9.84697Z" fill="#85C03A"/>
<path d="M11.2873 5.6343C11.2873 5.06704 10.8258 4.60559 10.2586 4.60559C10.0158 4.60559 9.78735 4.6887 9.60547 4.83897C9.50407 4.80635 9.39772 4.78951 9.28995 4.78951C8.7227 4.78951 8.26121 5.25099 8.26121 5.81821C8.26121 5.85322 8.26301 5.88819 8.2666 5.923C8.12141 6.10426 8.04053 6.33092 8.04053 6.56618C8.04053 7.13344 8.50201 7.59489 9.06927 7.59489C9.24666 7.59489 9.4203 7.54878 9.57331 7.46278C9.68271 7.50135 9.79841 7.52131 9.91527 7.52131C10.4825 7.52131 10.944 7.05982 10.944 6.49261C10.944 6.46311 10.9428 6.43372 10.9403 6.4045C11.1582 6.21132 11.2873 5.93164 11.2873 5.6343ZM10.475 6.02041L10.2689 6.13622L10.3385 6.3621C10.3514 6.40415 10.358 6.44806 10.358 6.49261C10.358 6.73665 10.1594 6.93522 9.91535 6.93522C9.83689 6.93522 9.7598 6.91436 9.69236 6.87489L9.51329 6.77002L9.35493 6.90408C9.27401 6.97257 9.17524 7.0088 9.06927 7.0088C8.82519 7.0088 8.62662 6.81023 8.62662 6.56618C8.62666 6.43982 8.68105 6.31908 8.77584 6.235L8.91275 6.11356L8.86371 5.93723C8.85289 5.89831 8.84738 5.85826 8.84738 5.81825C8.84738 5.5742 9.04595 5.37564 9.29003 5.37564C9.3715 5.37564 9.45101 5.39787 9.52001 5.43995L9.74589 5.57772L9.90594 5.367C9.99057 5.25556 10.1192 5.19168 10.2586 5.19168C10.5027 5.19168 10.7013 5.39025 10.7013 5.6343C10.7013 5.79399 10.6146 5.94192 10.475 6.02041Z" fill="#85C03A"/>
<path d="M23.1609 7.80227C23.1609 7.23501 22.6994 6.77356 22.1321 6.77356C21.8894 6.77356 21.661 6.85667 21.479 7.00698C21.3777 6.97431 21.2713 6.95747 21.1635 6.95747C20.5962 6.95747 20.1347 7.41896 20.1347 7.98618C20.1347 8.02119 20.1365 8.05616 20.1401 8.09101C19.9949 8.27227 19.9141 8.49889 19.9141 8.73415C19.9141 9.30141 20.3755 9.76285 20.9428 9.76285C21.1202 9.76285 21.2938 9.71675 21.4468 9.63075C21.5562 9.66931 21.6719 9.68928 21.7888 9.68928C22.3561 9.68928 22.8176 9.22779 22.8176 8.66057C22.8176 8.63111 22.8163 8.60169 22.8138 8.5725C23.0318 8.37937 23.1609 8.09965 23.1609 7.80227ZM22.3484 8.18842L22.1424 8.30427L22.212 8.53015C22.2249 8.57215 22.2315 8.61603 22.2315 8.66057C22.2315 8.90462 22.0329 9.10319 21.7888 9.10319C21.7104 9.10319 21.6333 9.08232 21.5658 9.04286L21.3868 8.93799L21.2284 9.07205C21.1475 9.14054 21.0487 9.17676 20.9427 9.17676C20.6986 9.17676 20.5001 8.9782 20.5001 8.73415C20.5001 8.60783 20.5545 8.48709 20.6493 8.40297L20.7861 8.28157L20.7371 8.10527C20.7263 8.06628 20.7208 8.02623 20.7208 7.98618C20.7208 7.74213 20.9194 7.54356 21.1635 7.54356C21.2449 7.54356 21.3244 7.5658 21.3934 7.60788L21.6193 7.74573L21.7794 7.53497C21.864 7.42349 21.9926 7.35961 22.1321 7.35961C22.3761 7.35961 22.5747 7.55818 22.5747 7.80223C22.5748 7.96199 22.4881 8.10992 22.3484 8.18842Z" fill="#85C03A"/>
<path d="M20.0425 5.27209C19.8905 5.0484 19.6693 4.89168 19.4153 4.82245C19.383 4.70453 19.3313 4.59215 19.2618 4.48986C19.094 4.24292 18.8401 4.07608 18.5468 4.02013C18.2535 3.96418 17.956 4.02579 17.7091 4.19353C17.3156 4.46091 17.1407 4.95041 17.2554 5.39787C16.9364 5.77297 16.8955 6.32979 17.1815 6.75076C17.3492 6.9977 17.6031 7.16454 17.8964 7.22049C17.9671 7.23397 18.0379 7.24065 18.1083 7.24065C18.33 7.24062 18.5467 7.17447 18.7341 7.04705C18.7656 7.02572 18.7958 7.00286 18.8248 6.97855C19.1364 7.06299 19.4739 7.00966 19.7462 6.82469H19.7462C20.2559 6.47835 20.3889 5.78188 20.0425 5.27209ZM19.6402 5.99986C19.6136 6.13931 19.5343 6.26009 19.4168 6.33991H19.4168C19.2581 6.44771 19.0526 6.46143 18.8805 6.3757L18.6689 6.27048L18.5212 6.45486C18.4881 6.49616 18.4489 6.53231 18.4048 6.56235C18.2873 6.64214 18.1458 6.67148 18.0063 6.6448C17.8668 6.61815 17.7461 6.53883 17.6663 6.42138C17.5104 6.19194 17.5586 5.87776 17.776 5.70608L17.9607 5.56029L17.8582 5.34852C17.7446 5.11346 17.8221 4.8253 18.0385 4.67827C18.1277 4.61771 18.2307 4.58625 18.3362 4.58625C18.3696 4.58625 18.4034 4.58942 18.437 4.59582C18.5764 4.62247 18.6972 4.70179 18.777 4.81924C18.832 4.90016 18.8636 4.99421 18.8683 5.09115L18.8813 5.35548L19.1455 5.36942C19.3134 5.37833 19.4636 5.46293 19.5578 5.60144C19.6375 5.71889 19.6668 5.86041 19.6402 5.99986Z" fill="#85C03A"/>
<path d="M20.1141 12.2322C20.1141 12.0748 20.0774 11.9194 20.0088 11.7793C20.0781 11.6391 20.1141 11.4851 20.1141 11.3248C20.1141 10.8271 19.7588 10.4111 19.2886 10.3166C19.3427 10.1906 19.3719 10.0534 19.3719 9.91212C19.3719 9.34497 18.9105 8.88361 18.3434 8.88361C18.1888 8.88361 18.038 8.91826 17.901 8.98369C17.6529 8.74619 17.3209 8.61017 16.9695 8.61017C16.8793 8.61017 16.7902 8.61904 16.703 8.63666C16.6235 8.55744 16.5318 8.49205 16.4317 8.44283C16.6356 8.23647 16.7547 7.95514 16.7547 7.65749C16.7547 7.04128 16.2534 6.53992 15.6372 6.53992C15.3671 6.53992 15.1132 6.63484 14.9131 6.80597C14.7975 6.76656 14.6755 6.7462 14.552 6.7462C14.3325 6.7462 14.1227 6.80949 13.9441 6.92566C13.5713 6.57367 12.9902 6.51429 12.549 6.81406C12.1717 7.07046 11.9955 7.53135 12.0829 7.9635C11.6458 8.04463 11.305 8.40311 11.2503 8.84877C11.1245 8.8124 10.9814 8.79302 10.8224 8.80666C10.5799 8.82728 10.3651 8.90841 10.1978 9.04005C10.0955 9.00673 9.98792 8.98959 9.87894 8.98959C9.3118 8.98959 8.85043 9.45099 8.85043 10.0181C8.85043 10.0531 8.85219 10.0879 8.85575 10.1226C8.71063 10.3038 8.62973 10.5304 8.62973 10.7657C8.62973 10.9355 8.67075 11.0973 8.74485 11.2403C8.15876 11.274 7.69224 11.7614 7.69224 12.3556C7.69224 12.6349 7.79677 12.8994 7.97778 13.1015C7.69263 13.4524 7.55138 13.9038 7.58829 14.3567L9.18199 24.0007H18.3507L19.9415 14.3808L19.9444 14.3568C19.9725 14.0121 19.8975 13.6683 19.7343 13.3691C19.7582 13.276 19.7705 13.1815 19.7705 13.09C19.7705 13.0606 19.7693 13.0313 19.7668 13.0022C19.9849 12.809 20.1141 12.5294 20.1141 12.2322ZM9.67918 23.4146L8.17153 14.2975C8.14794 13.9704 8.25723 13.6578 8.47993 13.4162C8.7052 13.1718 9.01231 13.0372 9.34473 13.0372H9.35695C9.9916 13.0372 10.5078 13.534 10.5323 14.1681L10.5325 14.174L10.5353 14.2094C10.5352 14.2333 10.5357 14.2572 10.5366 14.2812L11.2619 23.4146H9.67918ZM11.8498 23.4146L11.1214 14.1891C11.127 13.8924 11.2422 13.6136 11.4498 13.3978C11.6736 13.1653 11.9746 13.0372 12.2974 13.0372C12.9459 13.0372 13.4735 13.5649 13.4735 14.2134V23.4146H11.8498ZM14.0595 23.4146V14.2134C14.0595 13.5649 14.5871 13.0372 15.2357 13.0372C15.5584 13.0372 15.8594 13.1653 16.0832 13.3979C16.2909 13.6137 16.4061 13.8924 16.4117 14.1892L15.6832 23.4146H14.0595ZM19.3615 14.2975L17.8538 23.4146H16.2711L16.9958 14.2931L16.9965 14.2811C16.9974 14.2571 16.9978 14.2331 16.9978 14.2092L17.0001 14.1799L17.0008 14.1681C17.0252 13.534 17.5415 13.0372 18.1761 13.0372H18.1883C18.5207 13.0372 18.8279 13.1717 19.0531 13.4162C19.2758 13.6578 19.3851 13.9704 19.3615 14.2975ZM19.3016 12.6181L19.1217 12.7193C18.8441 12.5462 18.5204 12.4514 18.1883 12.4514H18.1761C17.561 12.4514 17.0202 12.7628 16.7051 13.2399C16.6467 13.1524 16.58 13.0693 16.5053 12.9917C16.1701 12.6432 15.7191 12.4514 15.2356 12.4514C14.6229 12.4514 14.0823 12.7656 13.7664 13.2415C13.4506 12.7657 12.91 12.4514 12.2973 12.4514C11.8138 12.4514 11.3628 12.6432 11.0276 12.9917C10.9529 13.0693 10.8862 13.1523 10.8278 13.2399C10.5126 12.7628 9.97187 12.4514 9.35684 12.4514H9.34461C9.01528 12.4514 8.69434 12.5446 8.41829 12.7149C8.32958 12.618 8.27821 12.4904 8.27821 12.3555C8.27821 12.0625 8.51669 11.8242 8.80985 11.8242C8.90762 11.8242 9.00313 11.8509 9.08598 11.9014L9.31156 12.0388L9.47152 11.8285C9.50672 11.7823 9.54953 11.7419 9.59871 11.7087L10.0988 11.3701L9.52336 11.1869C9.33937 11.1283 9.21574 10.959 9.21574 10.7657C9.21574 10.6392 9.27008 10.5185 9.36484 10.4345L9.50187 10.3129L9.45258 10.1365C9.44187 10.0981 9.43644 10.0583 9.43644 10.0181C9.43644 9.77403 9.635 9.57548 9.87902 9.57548C9.96062 9.57548 10.0401 9.59763 10.1088 9.63962L10.3347 9.77755L10.4948 9.56673C10.5915 9.43939 10.7534 9.4006 10.8723 9.39044C11.1321 9.36857 11.3219 9.52251 11.4352 9.61474C11.4703 9.64321 11.5006 9.66786 11.5336 9.68786L11.7614 9.82567L11.9188 9.61407L12.0623 9.42532L11.9228 9.24743C11.8612 9.16884 11.8286 9.07455 11.8286 8.9747C11.8286 8.73228 12.0245 8.53475 12.2663 8.53217L12.4314 8.54158L12.5257 8.41885C12.553 8.38334 12.5834 8.35221 12.6161 8.32639L12.8004 8.18069L12.6982 7.96909C12.5845 7.73389 12.662 7.44573 12.8783 7.2987C13.1207 7.1339 13.452 7.19726 13.6165 7.43944C13.6262 7.45382 13.6359 7.4703 13.6454 7.48839L13.8544 7.88897L14.1348 7.53467C14.2366 7.406 14.3887 7.33218 14.552 7.33218C14.6497 7.33218 14.7452 7.35886 14.8281 7.40932L15.0536 7.54671L15.2135 7.33659C15.3155 7.20272 15.4699 7.12593 15.6371 7.12593C15.9302 7.12593 16.1687 7.3644 16.1687 7.65756C16.1687 7.84928 16.0647 8.02678 15.8972 8.1208L15.6917 8.23611L15.7603 8.46154C15.7754 8.51115 15.7833 8.56213 15.7839 8.6133C15.7835 8.62111 15.7832 8.62904 15.7832 8.63721V8.89365L16.0374 8.92755C16.1662 8.94474 16.2806 9.01798 16.3512 9.12853L16.4793 9.329L16.7017 9.24482C16.787 9.21255 16.8771 9.19619 16.9695 9.19619C17.224 9.19619 17.4606 9.32243 17.6024 9.53392L17.7923 9.8172L18.0437 9.58673C18.1261 9.51118 18.2325 9.46962 18.3434 9.46962C18.5874 9.46962 18.7859 9.66817 18.7859 9.9122C18.7859 10.0717 18.6991 10.2197 18.5595 10.2983L18.3524 10.4148L18.4236 10.6415C18.4305 10.6632 18.4355 10.6879 18.4387 10.7151L18.4891 11.1501L18.872 10.9374C18.9366 10.9015 19.0104 10.8825 19.0855 10.8825C19.3296 10.8825 19.5281 11.0809 19.5281 11.3247C19.5281 11.4248 19.4955 11.5193 19.4339 11.5978L19.2919 11.7789L19.4342 11.9596C19.4957 12.0377 19.5281 12.1319 19.5281 12.232C19.5281 12.3915 19.4413 12.5394 19.3016 12.6181Z" fill="#85C03A"/>
<path d="M14.7625 9.56655C14.6757 9.56655 14.5909 9.57936 14.5099 9.60433C14.3058 9.38353 14.0173 9.25397 13.7076 9.25397C13.1843 9.25397 12.7457 9.62324 12.6386 10.1148C12.0599 10.1426 11.5977 10.6221 11.5977 11.2076H12.1837C12.1837 10.9275 12.4116 10.6997 12.6917 10.6997C12.7377 10.6997 12.7847 10.7064 12.8314 10.7198L13.252 10.84L13.2032 10.4053C13.2008 10.384 13.1996 10.3653 13.1996 10.348C13.1996 10.0679 13.4275 9.84006 13.7076 9.84006C13.897 9.84006 14.0696 9.94481 14.1577 10.1134L14.3195 10.4229L14.5962 10.2097C14.63 10.1837 14.6863 10.1526 14.7625 10.1526C14.9134 10.1526 15.0361 10.2754 15.0361 10.4261H15.6221C15.6221 9.95216 15.2365 9.56655 14.7625 9.56655Z" fill="#85C03A"/>
<path d="M16.7154 10.6407C16.4287 10.6407 16.1582 10.764 15.9685 10.9696C15.8642 10.933 15.7539 10.9142 15.6409 10.9142C15.0915 10.9142 14.6445 11.3611 14.6445 11.9105H15.2306C15.2306 11.6843 15.4147 11.5003 15.6409 11.5003C15.7296 11.5003 15.8144 11.5288 15.8863 11.5827L16.1736 11.7985L16.3272 11.4736C16.3981 11.3237 16.5505 11.2268 16.7154 11.2268C16.9524 11.2268 17.1452 11.4196 17.1452 11.6566H17.7313C17.7312 11.0964 17.2756 10.6407 16.7154 10.6407Z" fill="#85C03A"/>
<path d="M9.33605 14.1583L8.75781 14.2539L9.13416 16.5291L9.7124 16.4334L9.33605 14.1583Z" fill="#85C03A"/>
<path d="M10.2613 19.7535L9.68311 19.8491L9.91781 21.2688L10.4961 21.1732L10.2613 19.7535Z" fill="#85C03A"/>
<path d="M14.7066 20.9087L14.6462 21.6691L15.2305 21.7155L15.2909 20.9552L14.7066 20.9087Z" fill="#85C03A"/>
<path d="M15.0664 16.3777L14.8894 18.605L15.4737 18.6514L15.6506 16.4241L15.0664 16.3777Z" fill="#85C03A"/>
<path d="M15.2404 14.1845L15.1375 15.4801L15.7217 15.5265L15.8247 14.231L15.2404 14.1845Z" fill="#85C03A"/>
</g>
<rect x="0.3" y="0.3" width="27.4" height="27.4" rx="9.7" stroke="#85C03A" stroke-width="0.6"/>
<defs>
<clipPath id="clip0">
<rect width="20" height="20" fill="white" transform="translate(4 4)"/>
</clipPath>
</defs>
</svg>
