<svg width="28" height="28" viewBox="0 0 28 28" fill="none" xmlns="http://www.w3.org/2000/svg">
<rect x="0.3" y="0.3" width="27.4" height="27.4" rx="9.7" fill="#E15789" fill-opacity="0.16"/>
<g clip-path="url(#clip0)">
<path d="M23.707 18.3907C23.8688 18.3907 24 18.2595 24 18.0977V17.5311C24 16.9583 23.5627 16.4923 23.0251 16.4923H22.551V15.892C22.551 15.472 22.2092 15.1303 21.7892 15.1303H19.431C19.011 15.1303 18.6693 15.472 18.6693 15.892V17.4554C16.5627 17.2096 13.9405 17.2092 11.8303 17.4554V15.892C11.8303 15.472 11.4885 15.1303 11.0685 15.1303H10.8822C12.4883 14.1523 14.2844 12.8261 15.6848 11.5345L16.6044 12.7987C16.8519 13.1389 17.3296 13.2133 17.6686 12.9667L19.5756 11.5795C19.5756 11.5795 19.5756 11.5795 19.5756 11.5795C19.9153 11.3325 19.9906 10.8551 19.7436 10.5154L19.3904 10.0299L19.7739 9.75103C20.2086 9.43479 20.2882 8.80072 19.9513 8.33752L18.361 6.15124C18.0241 5.68811 17.3964 5.56846 16.9617 5.88467L16.5782 6.16362L16.2251 5.67819C15.9781 5.33843 15.5007 5.26315 15.161 5.51018L13.2539 6.89729C12.9142 7.14432 12.8389 7.6217 13.086 7.96143L14.0055 9.22564C12.1569 10.2664 10.0365 11.8082 8.47488 13.2485L7.79844 12.3186C7.4175 11.7949 6.68047 11.6785 6.15684 12.0595L4.91832 12.9603C4.39434 13.3415 4.27813 14.0779 4.65926 14.602L4.76918 14.7531L4.38579 15.032C3.94239 15.3544 3.87837 15.9917 4.2084 16.4455L5.79864 18.6317C5.97262 18.8709 6.22762 19.0231 6.49957 19.0635V20.2345C6.49957 20.8073 6.93691 21.2733 7.47445 21.2733H7.94859V21.8736C7.94859 22.2936 8.29035 22.6353 8.71035 22.6353H11.0685C11.4886 22.6353 11.8303 22.2936 11.8303 21.8736V20.3104C12.6629 20.4073 13.5989 20.4682 14.5603 20.4875C14.5623 20.4876 14.5643 20.4876 14.5663 20.4876C14.7253 20.4876 14.8559 20.3603 14.8591 20.2005C14.8624 20.0387 14.7339 19.905 14.5721 19.9017C13.6027 19.8822 12.661 19.8198 11.8303 19.7205V18.0451C13.9028 17.7967 16.5537 17.7916 18.6693 18.0451V19.7205C17.8386 19.8198 16.8969 19.8822 15.9275 19.9017C15.7658 19.905 15.6372 20.0387 15.6405 20.2005C15.6437 20.3603 15.7742 20.4876 15.9333 20.4876C15.9353 20.4876 15.9373 20.4876 15.9393 20.4875C16.9007 20.4682 17.8367 20.4073 18.6693 20.3104V21.8736C18.6693 22.2936 19.011 22.6353 19.431 22.6353H21.7892C22.2093 22.6353 22.551 22.2936 22.551 21.8736V21.2733H23.0251C23.5627 21.2733 24 20.8073 24 20.2345V19.465C24 19.3032 23.8688 19.172 23.707 19.172C23.5452 19.172 23.4141 19.3032 23.4141 19.465V20.2345C23.4141 20.48 23.236 20.6873 23.0252 20.6873H22.551V17.0784H23.0252C23.2359 17.0784 23.4141 17.2857 23.4141 17.5311V18.0977C23.414 18.2595 23.5452 18.3907 23.707 18.3907ZM17.3063 6.35854C17.4767 6.23463 17.7428 6.29749 17.8871 6.49596L19.4774 8.68225C19.6217 8.88068 19.5997 9.15318 19.4292 9.27717L19.0458 9.55603C18.8084 9.22955 17.1642 6.96913 16.9229 6.63741L17.3063 6.35854ZM13.5598 7.61682C13.5038 7.53975 13.5216 7.42729 13.5986 7.37123L15.5056 5.98409C15.583 5.92788 15.6953 5.94604 15.7512 6.02288C15.8698 6.18592 18.6027 9.9431 18.7442 10.1377C18.7443 10.1378 18.7443 10.1379 18.7444 10.1379L19.2697 10.8601C19.3257 10.9371 19.308 11.0496 19.2309 11.1056L17.3238 12.4928C17.2464 12.549 17.1351 12.5321 17.0783 12.454C16.9627 12.2951 13.6993 7.80858 13.5598 7.61682ZM14.3524 9.70267L15.338 11.0575C13.8137 12.4722 11.6757 14.0361 9.80718 15.0801L8.82183 13.7255C10.342 12.3145 12.4813 10.7481 14.3524 9.70267ZM6.49957 17.5311V18.4611C6.41242 18.4286 6.33188 18.3686 6.27258 18.287L4.68235 16.1007C4.53137 15.8932 4.56512 15.6261 4.73051 15.5058L5.11391 15.227C5.16039 15.2909 5.52434 15.7912 6.55016 17.2016C6.51524 17.3125 6.49957 17.4271 6.49957 17.5311ZM7.94859 20.6873H7.47445C7.26367 20.6873 7.08555 20.48 7.08555 20.2345C7.08555 19.9698 7.08555 17.807 7.08555 17.5311C7.08555 17.4287 7.11934 17.3182 7.18625 17.2314C7.26594 17.1279 7.37371 17.0783 7.47445 17.0783H7.94855V20.6873H7.94859ZM7.94859 15.892V16.4923H7.47445C7.45066 16.4923 7.42711 16.4935 7.40371 16.4954C7.39957 16.4957 7.39543 16.496 7.39129 16.4964C7.20988 16.5128 7.04254 16.5823 6.90297 16.6903L5.13317 14.2572C4.94207 13.9945 5.00032 13.6253 5.26301 13.4342L6.50152 12.5334C6.76305 12.343 7.13418 12.4015 7.32453 12.6633C7.53785 12.9565 8.89066 14.8164 9.11894 15.1302H8.71031C8.29035 15.1302 7.94859 15.472 7.94859 15.892ZM11.2444 21.8736C11.2444 21.9688 11.1639 22.0493 11.0686 22.0493H8.71039C8.61511 22.0493 8.53461 21.9688 8.53461 21.8736C8.53461 21.5978 8.53461 16.0718 8.53461 15.892C8.53461 15.7968 8.61511 15.7163 8.71039 15.7163C9.3066 15.7163 9.63578 15.7163 9.80714 15.7163C9.93066 15.7163 9.97222 15.7163 9.97257 15.7163C10.1439 15.7163 10.4728 15.7163 11.0686 15.7163C11.1639 15.7163 11.2444 15.7968 11.2444 15.892C11.2444 16.2546 11.2444 21.6506 11.2444 21.8736ZM21.965 21.8736C21.965 21.9688 21.8845 22.0493 21.7893 22.0493H19.4311C19.3358 22.0493 19.2553 21.9688 19.2553 21.8736V15.892C19.2553 15.7968 19.3358 15.7163 19.4311 15.7163H21.7893C21.8845 15.7163 21.965 15.7968 21.965 15.892C21.965 16.2529 21.965 21.68 21.965 21.8736Z" fill="#E15789"/>
</g>
<rect x="0.3" y="0.3" width="27.4" height="27.4" rx="9.7" stroke="#E15789" stroke-width="0.6"/>
<defs>
<clipPath id="clip0">
<rect width="20" height="20" fill="white" transform="translate(4 4)"/>
</clipPath>
</defs>
</svg>
