<svg width="28" height="28" viewBox="0 0 28 28" fill="none" xmlns="http://www.w3.org/2000/svg">
<path d="M0 10C0 4.47715 4.47715 0 10 0H18C23.5228 0 28 4.47715 28 10V18C28 23.5228 23.5228 28 18 28H10C4.47715 28 0 23.5228 0 18V10Z" fill="#E1AA57" fill-opacity="0.16"/>
<g clip-path="url(#clip0)">
<path d="M12.7576 8.53424C12.8621 8.53424 12.9606 8.48491 13.023 8.40113C13.0856 8.31735 13.105 8.20914 13.0753 8.10886C12.8378 7.29806 12.4275 6.54839 11.8722 5.91178C11.4249 5.43578 10.759 5.23198 10.1219 5.37609C10.0339 5.40974 9.96452 5.47929 9.93087 5.56727C9.9126 5.61676 9.89901 5.66787 9.89044 5.71996C9.88025 5.78174 9.87475 5.84417 9.87378 5.90677V5.9121C9.87782 6.44035 10.0907 6.94563 10.4661 7.31747C11.1027 7.87224 11.8519 8.28241 12.6622 8.51969C12.6932 8.52891 12.7253 8.53392 12.7576 8.53424ZM10.9358 6.84842C10.8043 6.71676 10.7011 6.55939 10.6323 6.38633V6.38309C10.6178 6.34638 10.6052 6.3095 10.5943 6.27408C10.5887 6.25483 10.5846 6.23672 10.5798 6.21779C10.5748 6.19887 10.5704 6.18464 10.5672 6.16814C10.5638 6.15148 10.5631 6.14485 10.5609 6.13304C10.5511 6.08355 10.5444 6.03357 10.5406 5.98327C10.8674 6.00802 11.1742 6.14905 11.4058 6.38083C11.7351 6.75315 12.0005 7.1774 12.1912 7.63658C11.7315 7.44524 11.3066 7.17886 10.9342 6.84842H10.9358Z" fill="#E1AA57"/>
<path d="M22.9233 8.7628H17.8102C18.0313 8.61174 18.239 8.44175 18.4306 8.25494C19.6155 7.06647 19.6544 5.26451 18.8974 4.50757C18.1405 3.75062 16.3392 3.78879 15.1494 4.975C14.6629 5.50454 14.2676 6.11107 13.9797 6.77C13.6918 6.11058 13.2962 5.50373 12.8092 4.97403C11.6207 3.78912 9.81891 3.7503 9.0618 4.50725C8.30453 5.26419 8.34368 7.06614 9.52875 8.25494C9.72057 8.44175 9.92825 8.61174 10.1492 8.7628H5.03608C4.85315 8.7628 4.70483 8.91112 4.70483 9.09405V12.4065C4.70483 12.5894 4.85315 12.7377 5.03608 12.7377H5.69857V22.3438C5.6997 23.258 6.44063 23.9989 7.35479 24.0001H20.6046C21.5189 23.9989 22.2598 23.258 22.2608 22.3438V12.7377H22.9233C23.1062 12.7377 23.2545 12.5894 23.2545 12.4065V9.09405C23.2545 8.91112 23.1062 8.7628 22.9233 8.7628ZM15.6181 5.44308C16.5701 4.49398 17.9587 4.50498 18.4293 4.97565C18.9 5.44631 18.9113 6.83421 17.9622 7.78654C17.5276 8.1883 17.0314 8.51777 16.4925 8.7628H14.5131C14.5131 8.75585 14.5131 8.74825 14.5131 8.74129C14.5131 8.66576 14.5075 8.58926 14.5002 8.51227C14.4974 8.48687 14.4945 8.46164 14.4916 8.43576C14.484 8.3722 14.4746 8.3088 14.4633 8.24572C14.4597 8.22356 14.456 8.20124 14.4521 8.17941C14.4363 8.09692 14.419 8.01572 14.3991 7.93728C14.3965 7.92596 14.3934 7.91609 14.3908 7.90412C14.3732 7.83554 14.3551 7.77166 14.3365 7.7055C14.3339 7.69645 14.3315 7.68658 14.3289 7.67752C14.6003 6.852 15.0393 6.09117 15.6181 5.44308ZM15.3047 12.0753H12.6547V9.42529H15.3047V12.0753ZM9.99747 7.78686C9.04822 6.83453 9.05938 5.44663 9.53021 4.97565C10.0009 4.50466 11.3888 4.49366 12.3404 5.44211C12.9431 6.11721 13.3948 6.9133 13.6654 7.77699C13.7028 7.89329 13.7316 8.00489 13.7588 8.11325C13.7664 8.14431 13.7727 8.17439 13.7793 8.20496C13.7972 8.28583 13.8116 8.36298 13.8225 8.4369C13.826 8.46197 13.8307 8.48784 13.8336 8.51227C13.8442 8.59492 13.8498 8.67821 13.8506 8.76151H11.4669C10.9283 8.51696 10.4322 8.18798 9.99747 7.78686ZM5.36732 9.42529H11.9922V12.0753H5.36732V9.42529ZM6.36106 22.3438V12.7377H12.6547V23.3376H7.35479C6.80601 23.3376 6.36106 22.8926 6.36106 22.3438ZM13.3172 23.3376V12.7377H14.6422V23.3376H13.3172ZM21.5983 22.3438C21.5983 22.8926 21.1535 23.3376 20.6046 23.3376H15.3047V12.7377H21.5983V22.3438ZM22.5921 12.0753H15.9672V9.42529H22.5921V12.0753Z" fill="#E1AA57"/>
<path d="M15.2011 8.53517C15.233 8.53517 15.2647 8.53064 15.2953 8.52158C16.1066 8.28447 16.8566 7.87349 17.493 7.3171C17.9643 6.86633 18.1675 6.20319 18.0297 5.56577C17.9963 5.47811 17.927 5.40888 17.8393 5.3754C17.2019 5.2376 16.5387 5.44074 16.088 5.91206C15.5317 6.54851 15.1208 7.2985 14.8835 8.10979C14.8539 8.21007 14.8731 8.31843 14.9357 8.40205C14.9983 8.48584 15.0967 8.53517 15.2011 8.53517ZM16.5564 6.38046C16.7883 6.14885 17.0954 6.00797 17.4222 5.9829C17.3974 6.30978 17.2564 6.61708 17.0248 6.84902C16.6521 7.18059 16.2266 7.44746 15.7659 7.6388C15.9574 7.17816 16.2246 6.75295 16.5564 6.38046Z" fill="#E1AA57"/>
</g>
<path d="M10 0.6H18V-0.6H10V0.6ZM27.4 10V18H28.6V10H27.4ZM18 27.4H10V28.6H18V27.4ZM0.6 18V10H-0.6V18H0.6ZM10 27.4C4.80852 27.4 0.6 23.1915 0.6 18H-0.6C-0.6 23.8542 4.14578 28.6 10 28.6V27.4ZM27.4 18C27.4 23.1915 23.1915 27.4 18 27.4V28.6C23.8542 28.6 28.6 23.8542 28.6 18H27.4ZM18 0.6C23.1915 0.6 27.4 4.80852 27.4 10H28.6C28.6 4.14578 23.8542 -0.6 18 -0.6V0.6ZM10 -0.6C4.14578 -0.6 -0.6 4.14578 -0.6 10H0.6C0.6 4.80852 4.80852 0.6 10 0.6V-0.6Z" fill="#E1AA57"/>
<defs>
<clipPath id="clip0">
<rect width="20" height="20" fill="white" transform="translate(4 4)"/>
</clipPath>
</defs>
</svg>
