<svg width="28" height="28" viewBox="0 0 28 28" fill="none" xmlns="http://www.w3.org/2000/svg">
<path d="M0 10C0 4.47715 4.47715 0 10 0H18C23.5228 0 28 4.47715 28 10V18C28 23.5228 23.5228 28 18 28H10C4.47715 28 0 23.5228 0 18V10Z" fill="#5E9C60" fill-opacity="0.16"/>
<path d="M18.6872 9.93752C18.7003 9.93751 18.7133 9.93668 18.7263 9.93506C19.2533 9.8692 20.25 9.45459 20.25 8.35763C20.25 8.02092 20.3962 7.7756 20.6969 7.60736C20.8593 7.51942 21.0361 7.46134 21.219 7.43588C21.3008 7.42689 21.3757 7.38599 21.4276 7.32205C21.4794 7.25811 21.5039 7.17631 21.4958 7.0944C21.4877 7.0125 21.4476 6.9371 21.3842 6.88459C21.3208 6.83209 21.2393 6.8067 21.1573 6.81396C20.6274 6.86552 19.6251 7.25443 19.6251 8.35767C19.6251 8.69752 19.477 8.94939 19.1724 9.1281C19.0102 9.22066 18.833 9.2839 18.6489 9.31494C18.5701 9.32481 18.4979 9.36435 18.4472 9.42552C18.3965 9.48669 18.371 9.56488 18.3758 9.6442C18.3807 9.72351 18.4156 9.79799 18.4735 9.85248C18.5313 9.90697 18.6077 9.93738 18.6872 9.93752Z" fill="#5E9C60"/>
<path d="M4.62695 12.1448C4.62801 12.1618 4.63047 12.1786 4.6343 12.1952L5.56051 16.2147L5.16766 23.3578C5.16532 23.4003 5.17167 23.4427 5.18629 23.4826C5.20092 23.5225 5.22353 23.559 5.25273 23.5898C5.28194 23.6207 5.31712 23.6452 5.35615 23.662C5.39517 23.6788 5.4372 23.6875 5.47969 23.6875H22.5202C22.5627 23.6875 22.6048 23.6788 22.6438 23.662C22.6828 23.6452 22.718 23.6207 22.7472 23.5898C22.7764 23.559 22.799 23.5225 22.8136 23.4826C22.8283 23.4427 22.8346 23.4003 22.8323 23.3578L22.4394 16.2145L23.3656 12.195C23.3695 12.1784 23.3719 12.1616 23.373 12.1446C23.3855 11.9628 23.3443 11.7812 23.2546 11.6225C23.1649 11.4637 23.0306 11.3348 22.8683 11.2517C22.83 11.2318 22.7905 11.2143 22.75 11.1994V7.125C22.7501 6.47981 22.5284 5.8542 22.122 5.35311C21.7155 4.85202 21.1492 4.50592 20.5179 4.37288C19.8866 4.23983 19.2287 4.32793 18.6546 4.6224C18.0806 4.91686 17.6252 5.39978 17.365 5.99015C16.9456 5.72799 16.4645 5.58105 15.9702 5.56414C15.4759 5.54723 14.9858 5.66094 14.5495 5.89382C14.2227 5.52176 13.8035 5.24259 13.3342 5.08455C12.8649 4.9265 12.3622 4.89519 11.8769 4.99377C11.3916 5.09236 10.941 5.31734 10.5706 5.64597C10.2002 5.97461 9.92308 6.39523 9.76738 6.86531C9.61899 6.82981 9.46691 6.81209 9.31434 6.8125C9.10562 6.81133 8.89816 6.84473 8.70035 6.91132L9.30145 4.70722C9.31409 4.66086 9.31587 4.61222 9.30665 4.56506C9.29744 4.5179 9.27747 4.4735 9.2483 4.43531C9.21914 4.39713 9.18156 4.36618 9.13849 4.34488C9.09542 4.32358 9.04801 4.3125 8.99996 4.3125H7.43746C7.36888 4.31251 7.30221 4.33508 7.24773 4.37673C7.19325 4.41838 7.15398 4.47679 7.13598 4.54296L6.84086 5.625L6.80144 5.48046C6.78344 5.41429 6.74417 5.35588 6.68969 5.31423C6.63521 5.27258 6.56854 5.25001 6.49996 5.25H4.93746C4.88943 5.25 4.84205 5.26108 4.799 5.28237C4.75594 5.30366 4.71838 5.33459 4.68921 5.37275C4.66005 5.41092 4.64008 5.45529 4.63085 5.50242C4.62161 5.54955 4.62337 5.59818 4.63598 5.64453L5.52867 8.91796C5.31258 9.56211 5.17223 10.4025 5.29906 11.1831C5.24126 11.2008 5.18521 11.2238 5.1316 11.2518C4.96932 11.3349 4.835 11.4638 4.74529 11.6226C4.65559 11.7813 4.61444 11.9629 4.62695 12.1448ZM17.75 7.125C17.75 6.54483 17.9804 5.98844 18.3907 5.5782C18.8009 5.16796 19.3573 4.9375 19.9375 4.9375C20.5176 4.9375 21.074 5.16796 21.4843 5.5782C21.8945 5.98844 22.125 6.54483 22.125 7.125V11.1872C22.0174 11.2228 21.9169 11.277 21.8281 11.3473C21.7643 11.3976 21.6844 11.4229 21.6033 11.4186C21.5222 11.4142 21.4455 11.3804 21.3875 11.3236L20.9837 10.9258C20.8039 10.7501 20.5626 10.6518 20.3113 10.6518C20.06 10.6518 19.8186 10.7501 19.6389 10.9258L19.2828 11.2767C19.2203 11.3377 19.1364 11.3719 19.049 11.3719C18.9617 11.3719 18.8778 11.3377 18.8153 11.2767L18.4591 10.9258C18.3658 10.8343 18.2548 10.763 18.1328 10.7161C18.0108 10.6693 17.8805 10.648 17.75 10.6536V7.125ZM12.4375 5.5625C12.7867 5.56308 13.1307 5.64704 13.4409 5.80738C13.7511 5.96773 14.0185 6.19983 14.2209 6.48437C14.2682 6.55085 14.3397 6.5962 14.42 6.61072C14.5003 6.62523 14.583 6.60777 14.6506 6.56207C15.0249 6.30944 15.4682 6.17882 15.9197 6.18812C16.3712 6.19741 16.8087 6.34617 17.1723 6.61398C17.141 6.78252 17.1251 6.95357 17.125 7.125V9.31171C16.5599 8.88826 15.8681 8.6687 15.1623 8.68883C14.4564 8.70895 13.7782 8.96758 13.2382 9.42253C13.1771 9.155 13.0951 8.89265 12.993 8.63789C12.7667 8.08023 12.44 7.75539 12.022 7.67242C11.642 7.59699 11.2888 7.74554 11.0402 7.90246C10.8755 7.5878 10.6363 7.31829 10.3434 7.1175C10.4796 6.66808 10.7567 6.27434 11.1338 5.99437C11.5108 5.71439 11.9678 5.56299 12.4375 5.5625ZM17.125 10.1599V10.9164C17.1215 10.9196 17.1178 10.9224 17.1144 10.9258L16.7582 11.2767C16.6957 11.3377 16.6119 11.3719 16.5245 11.3719C16.4371 11.3719 16.3532 11.3377 16.2907 11.2767L15.9346 10.9258C15.7549 10.7501 15.5135 10.6518 15.2622 10.6518C15.0109 10.6518 14.7696 10.7501 14.5898 10.9258L14.2337 11.2767C14.1712 11.3377 14.0873 11.3719 14 11.3719C13.9126 11.3719 13.8287 11.3377 13.7662 11.2767L13.4101 10.9258C13.2994 10.8167 13.1635 10.7365 13.0145 10.6924C13.1978 10.3265 13.4682 10.0112 13.8019 9.77422C14.1355 9.53723 14.5223 9.38581 14.9282 9.33323C15.334 9.28066 15.7466 9.32854 16.1296 9.47268C16.5127 9.61682 16.8544 9.85281 17.125 10.1599ZM7.67613 4.9375H8.59082L7.90758 7.44273C7.78177 7.58226 7.67343 7.7366 7.58496 7.90234C7.53977 7.87382 7.49098 7.84558 7.4393 7.8189L7.1648 6.8125L7.67613 4.9375ZM7.49398 8.62136C7.53256 8.66056 7.5808 8.68889 7.63383 8.70347C7.68686 8.71806 7.7428 8.7184 7.796 8.70444C7.8492 8.69049 7.89777 8.66274 7.93682 8.624C7.97586 8.58527 8.00399 8.53691 8.01836 8.48382C8.02117 8.47339 8.3132 7.4375 9.31434 7.4375C10.3021 7.4375 10.595 8.44234 10.6066 8.48382C10.6209 8.53691 10.6491 8.58527 10.6881 8.624C10.7271 8.66274 10.7757 8.69049 10.8289 8.70444C10.8821 8.7184 10.9381 8.71806 10.9911 8.70347C11.0441 8.68889 11.0924 8.66056 11.1309 8.62136C11.2353 8.51535 11.6005 8.22586 11.9001 8.28543C12.0987 8.32484 12.2715 8.5225 12.4138 8.87293C12.5573 9.23291 12.6566 9.609 12.7094 9.99293C12.5418 10.2263 12.4074 10.4818 12.3099 10.7521C12.2196 10.7966 12.1371 10.8552 12.0653 10.9257L11.7092 11.2766C11.6665 11.3184 11.6133 11.348 11.5553 11.3622C11.4973 11.3765 11.4365 11.375 11.3793 11.3578C11.5282 10.1841 11.2088 9.51625 11.1944 9.48695C11.1581 9.41243 11.0937 9.35539 11.0154 9.32836C10.937 9.30133 10.8511 9.30654 10.7766 9.34283C10.7021 9.37912 10.6451 9.44352 10.618 9.52188C10.591 9.60023 10.5962 9.68611 10.6325 9.76062C10.6347 9.76535 10.8096 10.1479 10.7927 10.8466C10.609 10.7079 10.3817 10.6397 10.1521 10.6543C9.92245 10.6688 9.70563 10.7652 9.54094 10.9259L9.1848 11.2768C9.12231 11.3378 9.03841 11.372 8.95105 11.372C8.86369 11.372 8.7798 11.3378 8.7173 11.2768L8.36121 10.9259C8.22433 10.7912 8.04985 10.7012 7.86078 10.6677C7.87996 10.0909 8.02566 9.77347 8.03062 9.76285C8.0658 9.68879 8.07046 9.60387 8.0436 9.5264C8.01674 9.44893 7.96051 9.38513 7.88704 9.34874C7.81356 9.31235 7.72873 9.3063 7.65083 9.33188C7.57294 9.35746 7.50821 9.41264 7.47062 9.4855C7.46035 9.50605 7.23883 9.95968 7.23383 10.7664C7.15411 10.809 7.08089 10.8627 7.01641 10.9261L6.61258 11.3235C6.55456 11.3803 6.47784 11.4141 6.39675 11.4184C6.31567 11.4228 6.23577 11.3975 6.17199 11.3472C6.10121 11.2914 6.02304 11.2456 5.93969 11.2112C5.76781 10.4104 5.96012 9.4914 6.21113 8.87296C6.35309 8.52332 6.52543 8.32578 6.72344 8.28574C7.02074 8.2255 7.38101 8.5082 7.49398 8.62136ZM5.3466 5.875H6.26129L6.74648 7.65418C6.69834 7.65697 6.65044 7.66307 6.60312 7.67242C6.35125 7.72242 6.13281 7.86086 5.94922 8.08449L5.3466 5.875ZM5.42207 11.8053C5.47912 11.7745 5.54398 11.7612 5.60854 11.767C5.67311 11.7729 5.73452 11.7976 5.78512 11.8381C5.96855 11.9824 6.19824 12.0549 6.43125 12.0421C6.66426 12.0293 6.88465 11.9322 7.05121 11.7687L7.45488 11.3711C7.51737 11.31 7.60127 11.2758 7.68863 11.2758C7.776 11.2758 7.8599 11.31 7.92238 11.3711L8.27851 11.7219C8.45826 11.8976 8.6996 11.9959 8.95092 11.9959C9.20223 11.9959 9.44357 11.8976 9.62332 11.7219L9.97941 11.3711C10.0419 11.31 10.1258 11.2758 10.2132 11.2758C10.3005 11.2758 10.3844 11.31 10.4469 11.3711L10.803 11.7219C10.9828 11.8976 11.2241 11.9959 11.4754 11.9959C11.7267 11.9959 11.9681 11.8976 12.1478 11.7219L12.5039 11.3711C12.5664 11.31 12.6503 11.2758 12.7376 11.2758C12.825 11.2758 12.9089 11.31 12.9714 11.3711L13.3275 11.7219C13.5072 11.8976 13.7486 11.9959 13.9999 11.9959C14.2512 11.9959 14.4925 11.8976 14.6723 11.7219L15.0284 11.3711C15.0909 11.31 15.1748 11.2758 15.2621 11.2758C15.3495 11.2758 15.4334 11.31 15.4959 11.3711L15.852 11.7219C16.0318 11.8976 16.2731 11.9959 16.5244 11.9959C16.7757 11.9959 17.0171 11.8976 17.1968 11.7219L17.5529 11.3711C17.6154 11.31 17.6993 11.2758 17.7867 11.2758C17.874 11.2758 17.9579 11.31 18.0204 11.3711L18.3765 11.7219C18.5563 11.8976 18.7976 11.9959 19.0489 11.9959C19.3002 11.9959 19.5416 11.8976 19.7213 11.7219L20.0775 11.3711C20.1399 11.31 20.2238 11.2758 20.3112 11.2758C20.3986 11.2758 20.4825 11.31 20.545 11.3711L20.9486 11.7688C21.1152 11.9322 21.3356 12.0294 21.5686 12.0422C21.8016 12.055 22.0313 11.9825 22.2147 11.8382C22.2653 11.7977 22.3267 11.7729 22.3913 11.7671C22.4559 11.7613 22.5207 11.7746 22.5778 11.8053C22.6293 11.8315 22.6725 11.8712 22.7029 11.9203C22.7333 11.9694 22.7496 12.0259 22.75 12.0836L21.8203 16.1172C21.8137 16.1458 21.8112 16.1752 21.8128 16.2045L22.1901 23.0625H5.80984L6.18699 16.2046C6.18865 16.1753 6.18618 16.1458 6.17965 16.1172L5.24996 12.0836C5.25033 12.0259 5.26659 11.9694 5.29695 11.9203C5.32731 11.8712 5.3706 11.8314 5.42207 11.8053Z" fill="#5E9C60"/>
<path d="M11.5 16.1875H16.5C16.5829 16.1875 16.6624 16.1546 16.721 16.096C16.7796 16.0374 16.8125 15.9579 16.8125 15.875V14C16.8125 13.9171 16.7796 13.8376 16.721 13.779C16.6624 13.7204 16.5829 13.6875 16.5 13.6875H11.5C11.4171 13.6875 11.3376 13.7204 11.279 13.779C11.2204 13.8376 11.1875 13.9171 11.1875 14V15.875C11.1875 15.9579 11.2204 16.0374 11.279 16.096C11.3376 16.1546 11.4171 16.1875 11.5 16.1875ZM11.8125 14.3125H16.1875V15.5625H11.8125V14.3125Z" fill="#5E9C60"/>
<path d="M10 0.6H18V-0.6H10V0.6ZM27.4 10V18H28.6V10H27.4ZM18 27.4H10V28.6H18V27.4ZM0.6 18V10H-0.6V18H0.6ZM10 27.4C4.80852 27.4 0.6 23.1915 0.6 18H-0.6C-0.6 23.8542 4.14578 28.6 10 28.6V27.4ZM27.4 18C27.4 23.1915 23.1915 27.4 18 27.4V28.6C23.8542 28.6 28.6 23.8542 28.6 18H27.4ZM18 0.6C23.1915 0.6 27.4 4.80852 27.4 10H28.6C28.6 4.14578 23.8542 -0.6 18 -0.6V0.6ZM10 -0.6C4.14578 -0.6 -0.6 4.14578 -0.6 10H0.6C0.6 4.80852 4.80852 0.6 10 0.6V-0.6Z" fill="#5E9C60"/>
</svg>
