<svg width="28" height="28" viewBox="0 0 28 28" fill="none" xmlns="http://www.w3.org/2000/svg">
<rect x="0.3" y="0.3" width="27.4" height="27.4" rx="9.7" fill="#BB5637" fill-opacity="0.16"/>
<path d="M15.875 8.0625H14.9375V7.125C14.9375 7.04212 14.9046 6.96263 14.846 6.90403C14.7874 6.84542 14.7079 6.8125 14.625 6.8125H13.375C13.2921 6.8125 13.2126 6.84542 13.154 6.90403C13.0954 6.96263 13.0625 7.04212 13.0625 7.125V8.0625H12.125C12.0421 8.0625 11.9626 8.09542 11.904 8.15403C11.8454 8.21263 11.8125 8.29212 11.8125 8.375V9.625C11.8125 9.70788 11.8454 9.78737 11.904 9.84597C11.9626 9.90458 12.0421 9.9375 12.125 9.9375H13.0625V10.875C13.0625 10.9579 13.0954 11.0374 13.154 11.096C13.2126 11.1546 13.2921 11.1875 13.375 11.1875H14.625C14.7079 11.1875 14.7874 11.1546 14.846 11.096C14.9046 11.0374 14.9375 10.9579 14.9375 10.875V9.9375H15.875C15.9579 9.9375 16.0374 9.90458 16.096 9.84597C16.1546 9.78737 16.1875 9.70788 16.1875 9.625V8.375C16.1875 8.29212 16.1546 8.21263 16.096 8.15403C16.0374 8.09542 15.9579 8.0625 15.875 8.0625ZM15.5625 9.3125H14.625C14.5421 9.3125 14.4626 9.34542 14.404 9.40403C14.3454 9.46263 14.3125 9.54212 14.3125 9.625V10.5625H13.6875V9.625C13.6875 9.54212 13.6546 9.46263 13.596 9.40403C13.5374 9.34542 13.4579 9.3125 13.375 9.3125H12.4375V8.6875H13.375C13.4579 8.6875 13.5374 8.65458 13.596 8.59597C13.6546 8.53737 13.6875 8.45788 13.6875 8.375V7.4375H14.3125V8.375C14.3125 8.45788 14.3454 8.53737 14.404 8.59597C14.4626 8.65458 14.5421 8.6875 14.625 8.6875H15.5625V9.3125Z" fill="#BB5637"/>
<path d="M22.6656 9.73746C22.672 9.68248 22.6751 9.62718 22.675 9.57183C22.6735 9.28539 22.5741 9.00806 22.3934 8.78583C22.2126 8.5636 21.9614 8.40981 21.6813 8.34996C21.3644 8.28964 21.0364 8.35194 20.7638 8.52425C20.4911 8.69656 20.294 8.96601 20.2125 9.27808L18.8375 13.2343C18.8171 13.2424 18.7973 13.2518 18.7781 13.2625L16.0156 14.8812C15.5929 15.1295 15.2423 15.4838 14.9984 15.9091C14.7545 16.3344 14.6258 16.816 14.625 17.3062V20.25C14.5421 20.25 14.4626 20.2829 14.404 20.3415C14.3454 20.4001 14.3125 20.4796 14.3125 20.5625V23.0625C14.3125 23.1453 14.3454 23.2248 14.404 23.2834C14.4626 23.342 14.5421 23.375 14.625 23.375H19C19.0829 23.375 19.1624 23.342 19.221 23.2834C19.2796 23.2248 19.3125 23.1453 19.3125 23.0625V20.5625C19.3125 20.4796 19.2796 20.4001 19.221 20.3415C19.1624 20.2829 19.0829 20.25 19 20.25V19.5625C19.0006 19.4305 19.0287 19.3001 19.0825 19.1795C19.1363 19.059 19.2146 18.951 19.3125 18.8625L21.425 16.9843C21.6561 16.7821 21.8215 16.5155 21.9 16.2187L23.2562 11.1468C23.2852 11.0409 23.2999 10.9316 23.3 10.8218C23.2988 10.6013 23.2395 10.385 23.1281 10.1946C23.0168 10.0043 22.8573 9.8466 22.6656 9.73746ZM20.8094 9.46246C20.8477 9.30085 20.9456 9.15963 21.0834 9.06696C21.2213 8.97429 21.389 8.93698 21.5531 8.96246C21.6932 8.99179 21.819 9.06831 21.9094 9.17922C21.9998 9.29014 22.0495 9.42873 22.05 9.57183V9.57808C21.7709 9.58326 21.5011 9.67948 21.2816 9.85209C21.0622 10.0247 20.9051 10.2643 20.8344 10.5343L19.9625 13.225C19.8305 13.1623 19.689 13.1222 19.5438 13.1062L20.8094 9.46246ZM18.6875 22.75H14.9375V20.875H18.6875V22.75ZM22.6531 10.9843L21.2937 16.0593C21.2467 16.2357 21.1489 16.3943 21.0125 16.5156L18.8969 18.3937C18.7332 18.5413 18.6022 18.7216 18.5123 18.9229C18.4224 19.1242 18.3756 19.342 18.375 19.5625V20.25H15.25V17.3062C15.2515 16.9249 15.352 16.5506 15.5415 16.2198C15.731 15.8889 16.0031 15.6129 16.3312 15.4187L19.0906 13.8031C19.1618 13.7616 19.2404 13.7346 19.322 13.7237C19.4036 13.7127 19.4866 13.718 19.5662 13.7392C19.6457 13.7604 19.7203 13.7971 19.7857 13.8472C19.851 13.8973 19.9058 13.9599 19.9469 14.0312C20.028 14.1756 20.0504 14.3457 20.0094 14.5062C19.9877 14.5855 19.9506 14.6596 19.9001 14.7245C19.8497 14.7894 19.787 14.8437 19.7156 14.8843L17.925 15.9187C17.857 15.9619 17.8083 16.0298 17.7891 16.1081C17.7699 16.1864 17.7818 16.269 17.8221 16.3388C17.8624 16.4086 17.9282 16.4601 18.0056 16.4826C18.083 16.505 18.1661 16.4967 18.2375 16.4593L20.0281 15.425C20.1713 15.3438 20.2967 15.2347 20.397 15.1043C20.4974 14.9739 20.5707 14.8247 20.6125 14.6656C20.6976 14.3458 20.6526 14.0054 20.4875 13.7187L20.4688 13.6906L21.4344 10.7125C21.4727 10.5508 21.5706 10.4096 21.7084 10.317C21.8463 10.2243 22.014 10.187 22.1781 10.2125C22.3182 10.2418 22.444 10.3183 22.5344 10.4292C22.6248 10.5401 22.6745 10.6787 22.675 10.8218C22.6761 10.8768 22.6687 10.9316 22.6531 10.9843Z" fill="#BB5637"/>
<path d="M13.375 20.25V17.3062C13.3741 16.816 13.2454 16.3344 13.0016 15.9091C12.7577 15.4838 12.407 15.1295 11.9843 14.8812L9.22183 13.2594C9.20308 13.25 9.1812 13.2437 9.16245 13.2344L7.79683 9.29998C7.71745 8.98335 7.52042 8.70887 7.24582 8.53238C6.97122 8.35589 6.63969 8.29067 6.3187 8.34998C6.03857 8.40983 5.78731 8.56362 5.60657 8.78585C5.42583 9.00808 5.32647 9.28541 5.32495 9.57186C5.32487 9.6272 5.328 9.6825 5.33433 9.73748C5.14269 9.84662 4.98317 10.0043 4.87181 10.1947C4.76045 10.385 4.70118 10.6013 4.69995 10.8219C4.70056 10.9314 4.7142 11.0405 4.74058 11.1469L6.09995 16.2156C6.17763 16.5137 6.34313 16.7815 6.57495 16.9844L8.68433 18.8625C8.78318 18.9504 8.86238 19.0582 8.91677 19.1788C8.97115 19.2994 8.9995 19.4302 8.99995 19.5625V20.25C8.91707 20.25 8.83758 20.2829 8.77898 20.3415C8.72038 20.4001 8.68745 20.4796 8.68745 20.5625V23.0625C8.68745 23.1454 8.72038 23.2248 8.77898 23.2835C8.83758 23.3421 8.91707 23.375 8.99995 23.375H13.375C13.4578 23.375 13.5373 23.3421 13.5959 23.2835C13.6545 23.2248 13.6875 23.1454 13.6875 23.0625V20.5625C13.6875 20.4796 13.6545 20.4001 13.5959 20.3415C13.5373 20.2829 13.4578 20.25 13.375 20.25ZM5.94995 9.57186C5.95034 9.42918 5.99953 9.29094 6.08934 9.18008C6.17916 9.06923 6.30421 8.99244 6.4437 8.96248C6.61234 8.938 6.78401 8.97819 6.92426 9.07498C7.06452 9.17176 7.163 9.318 7.19995 9.48436L8.4562 13.1062C8.31098 13.1222 8.16945 13.1624 8.03745 13.225L7.17183 10.55C7.10138 10.2772 6.94403 10.0349 6.72357 9.85952C6.50311 9.68417 6.23155 9.58538 5.94995 9.57811V9.57186ZM9.09995 18.3937L6.98745 16.5156C6.85028 16.3937 6.75239 16.2338 6.7062 16.0562L5.3437 10.9844C5.33077 10.9312 5.32447 10.8766 5.32495 10.8219C5.32534 10.6792 5.37453 10.5409 5.46434 10.4301C5.55416 10.3192 5.67921 10.2424 5.8187 10.2125C5.98616 10.1874 6.15692 10.2266 6.29664 10.3222C6.43637 10.4179 6.53469 10.5629 6.57183 10.7281L7.5312 13.6906L7.51245 13.7187C7.34732 14.0054 7.30238 14.3459 7.38745 14.6656C7.42929 14.8248 7.50255 14.9739 7.60291 15.1043C7.70327 15.2348 7.8287 15.3438 7.97183 15.425L9.76245 16.4594C9.83387 16.4967 9.91696 16.505 9.99437 16.4826C10.0718 16.4601 10.1375 16.4086 10.1779 16.3388C10.2182 16.2691 10.23 16.1864 10.2108 16.1081C10.1917 16.0298 10.143 15.962 10.075 15.9187L8.28433 14.8844C8.21291 14.8437 8.15021 14.7894 8.0998 14.7245C8.0494 14.6597 8.01228 14.5855 7.99058 14.5062C7.94952 14.3458 7.97191 14.1756 8.05308 14.0312C8.09391 13.96 8.14836 13.8976 8.21334 13.8474C8.27831 13.7973 8.35252 13.7604 8.43174 13.7389C8.51096 13.7174 8.59364 13.7118 8.67505 13.7223C8.75645 13.7327 8.835 13.7591 8.9062 13.8L11.6687 15.4187C11.9968 15.6129 12.2689 15.8889 12.4584 16.2198C12.648 16.5506 12.7484 16.925 12.75 17.3062V20.25H9.62495V19.5625C9.62442 19.3417 9.57739 19.1236 9.48694 18.9222C9.39648 18.7208 9.26462 18.5408 9.09995 18.3937ZM13.0625 22.75H9.31245V20.875H13.0625V22.75Z" fill="#BB5637"/>
<path d="M18.421 5.60375C18.1308 5.31313 17.7863 5.08258 17.407 4.92529C17.0277 4.76799 16.6211 4.68704 16.2104 4.68707C15.7998 4.6871 15.3932 4.76811 15.0139 4.92546C14.6346 5.0828 14.2901 5.3134 14 5.60406C13.71 5.3134 13.3655 5.08279 12.9862 4.92545C12.6069 4.76811 12.2003 4.68713 11.7897 4.68713C11.3791 4.68713 10.9725 4.76811 10.5932 4.92545C10.2139 5.08279 9.86943 5.3134 9.57939 5.60406C8.9945 6.19021 8.66602 6.98444 8.66602 7.8125C8.66602 8.64055 8.9945 9.43478 9.57939 10.0209L13.7794 14.2209C13.838 14.2795 13.9175 14.3124 14.0003 14.3124C14.0832 14.3124 14.1627 14.2795 14.2213 14.2209L18.4213 10.0209C19.0061 9.43469 19.3346 8.64038 19.3345 7.81228C19.3345 6.98417 19.0059 6.18991 18.421 5.60375ZM14 13.5581L10.021 9.57906C9.67162 9.22925 9.43384 8.78372 9.33768 8.29879C9.24151 7.81387 9.29128 7.31132 9.48069 6.85467C9.6701 6.39802 9.99064 6.00779 10.4018 5.73329C10.813 5.45879 11.2963 5.31235 11.7906 5.3125C12.119 5.31137 12.4444 5.37564 12.7477 5.50156C13.051 5.62749 13.3262 5.81254 13.5572 6.04593L13.7791 6.26781C13.8377 6.32639 13.9172 6.3593 14 6.3593C14.0829 6.3593 14.1624 6.32639 14.221 6.26781L14.4435 6.04531C14.6755 5.81289 14.951 5.6285 15.2544 5.50269C15.5577 5.37688 15.8829 5.31212 16.2113 5.31212C16.5397 5.31212 16.8648 5.37688 17.1682 5.50269C17.4715 5.6285 17.7471 5.81289 17.9791 6.04531C18.4472 6.51405 18.7101 7.14942 18.7101 7.81187C18.7101 8.47432 18.4472 9.10969 17.9791 9.57843L14 13.5581Z" fill="#BB5637"/>
<rect x="0.3" y="0.3" width="27.4" height="27.4" rx="9.7" stroke="#BB5637" stroke-width="0.6"/>
</svg>
