<svg width="28" height="28" viewBox="0 0 28 28" fill="none" xmlns="http://www.w3.org/2000/svg">
<rect x="0.3" y="0.3" width="27.4" height="27.4" rx="9.7" fill="#2F80ED" fill-opacity="0.1"/>
<g clip-path="url(#clip0)">
<path d="M21.7367 11.4316H20.4659V9.42623C20.4642 8.11158 19.399 7.04615 18.0841 7.04465H14.7428C14.3593 7.04484 13.9887 6.90602 13.6996 6.65433L12.6349 5.72754C12.2228 5.36902 11.6952 5.17151 11.1489 5.17151H6.38159C5.06693 5.17301 4.0015 6.23844 4 7.55309V20.1096C4.00169 21.5667 5.14198 22.7685 6.59697 22.8467V22.8505H20.09C21.1675 22.8484 22.095 22.0886 22.3089 21.0324L23.9543 14.1463L23.9571 14.1334C24.0884 13.4692 23.9151 12.7811 23.4853 12.258C23.0553 11.7348 22.4139 11.4316 21.7367 11.4316ZM4.67435 20.1096V7.55309C4.67548 6.6105 5.43918 5.8468 6.38177 5.84567H11.1491C11.5326 5.84567 11.9032 5.98431 12.1925 6.23618L13.2572 7.16278C13.6691 7.5213 14.1967 7.71881 14.7428 7.71881H18.0841C19.0267 7.71994 19.7906 8.48383 19.7917 9.42642V11.4316H19.4714C19.3079 10.5581 18.5459 9.92433 17.6571 9.92302H17.5458C17.3819 9.0314 16.6052 8.38339 15.6986 8.38207H7.94567C6.69628 8.38357 5.68372 9.39595 5.6824 10.6453V21.8836C5.05752 21.5108 4.67473 20.837 4.67435 20.1096ZM17.6571 10.5972C18.174 10.5977 18.6298 10.9365 18.7792 11.4316H13.0538C12.0067 11.4284 11.0953 12.1466 10.8532 13.1654L8.75565 20.5722L8.75189 20.5863C8.67307 20.9213 8.51186 21.2313 8.28275 21.488V12.1863C8.28369 11.309 8.99473 10.5981 9.87186 10.5972H17.6571ZM6.35657 22.1398V10.6453C6.35751 9.76802 7.06854 9.05717 7.94567 9.05623H15.6986C16.2333 9.0568 16.704 9.40968 16.8543 9.92302H9.87186C8.62247 9.92433 7.61009 10.9369 7.60859 12.1863V21.9867C7.21733 22.1667 6.77961 22.2201 6.35657 22.1398ZM23.297 13.9964L21.6519 20.882L21.6491 20.8951C21.5006 21.6389 20.8483 22.1748 20.09 22.1763H8.54535C8.97385 21.8016 9.27482 21.3027 9.4063 20.749L11.5038 13.3424L11.5076 13.3283C11.6756 12.6106 12.3166 12.1037 13.0538 12.1058H21.7367C22.2111 12.1058 22.6605 12.3176 22.9624 12.6834C23.2643 13.0493 23.3869 13.5309 23.297 13.9966V13.9964Z" fill="#2F80ED"/>
</g>
<rect x="0.3" y="0.3" width="27.4" height="27.4" rx="9.7" stroke="#2F80ED" stroke-width="0.6"/>
<defs>
<clipPath id="clip0">
<rect width="20" height="20" fill="white" transform="translate(4 4)"/>
</clipPath>
</defs>
</svg>
