<svg width="28" height="28" viewBox="0 0 28 28" fill="none" xmlns="http://www.w3.org/2000/svg">
<rect x="0.3" y="0.3" width="27.4" height="27.4" rx="9.7" fill="#2D9CDB" fill-opacity="0.1"/>
<path d="M21.8125 10.25H21.5V9.9375C21.4998 9.74371 21.4396 9.55474 21.3277 9.39651C21.2158 9.23829 21.0576 9.11856 20.875 9.05375V8.0625C20.875 7.97962 20.8421 7.90013 20.7835 7.84153C20.7249 7.78292 20.6454 7.75 20.5625 7.75V6.5H21.8125C22.0611 6.5 22.2996 6.40123 22.4754 6.22541C22.6512 6.0496 22.75 5.81114 22.75 5.5625C22.75 5.31386 22.6512 5.0754 22.4754 4.89959C22.2996 4.72377 22.0611 4.625 21.8125 4.625H18.6875C18.439 4.62529 18.2007 4.72415 18.0249 4.89991C17.8492 5.07566 17.7503 5.31395 17.75 5.5625V6.1875C17.75 6.27038 17.7829 6.34987 17.8415 6.40847C17.9001 6.46708 17.9796 6.5 18.0625 6.5H18.6875V7.75C18.6046 7.75 18.5251 7.78292 18.4665 7.84153C18.4079 7.90013 18.375 7.97962 18.375 8.0625V9.05375C18.1924 9.11856 18.0343 9.23829 17.9224 9.39651C17.8105 9.55474 17.7503 9.74371 17.75 9.9375V10.25H17.4375C17.0233 10.2505 16.6261 10.4152 16.3332 10.7082C16.0402 11.0011 15.8755 11.3982 15.875 11.8125V12.75H14V9H15.5625C15.6454 9 15.7249 8.96708 15.7835 8.90847C15.8421 8.84987 15.875 8.77038 15.875 8.6875V4.9375C15.875 4.85462 15.8421 4.77513 15.7835 4.71653C15.7249 4.65792 15.6454 4.625 15.5625 4.625H13.0625C12.814 4.62528 12.5757 4.72414 12.3999 4.8999C12.2242 5.07565 12.1253 5.31395 12.125 5.5625V12.75H10.6094L10.8748 6.51328C10.8766 6.47116 10.8698 6.42911 10.8549 6.38966C10.84 6.35022 10.8173 6.31419 10.7882 6.28376C10.759 6.25332 10.724 6.2291 10.6852 6.21256C10.6464 6.19602 10.6047 6.18749 10.5625 6.1875H4.93751C4.89535 6.1875 4.85363 6.19603 4.81486 6.21257C4.77608 6.22912 4.74106 6.25334 4.71189 6.28377C4.68272 6.31421 4.66001 6.35023 4.64512 6.38967C4.63024 6.42912 4.62349 6.47116 4.62528 6.51328L5.25001 21.1941V23.0625C5.25001 23.1454 5.28293 23.2249 5.34154 23.2835C5.40014 23.3421 5.47963 23.375 5.56251 23.375H21.8125C22.2268 23.3745 22.6239 23.2098 22.9169 22.9168C23.2098 22.6239 23.3745 22.2268 23.375 21.8125V11.8125C23.3745 11.3982 23.2098 11.0011 22.9169 10.7082C22.6239 10.4152 22.2268 10.2505 21.8125 10.25ZM20.25 8.375V9H19V8.375H20.25ZM18.375 5.5625C18.3751 5.47965 18.4081 5.40022 18.4666 5.34163C18.5252 5.28305 18.6047 5.25009 18.6875 5.25H21.8125C21.8954 5.25 21.9749 5.28292 22.0335 5.34153C22.0921 5.40013 22.125 5.47962 22.125 5.5625C22.125 5.64538 22.0921 5.72487 22.0335 5.78347C21.9749 5.84208 21.8954 5.875 21.8125 5.875H18.375V5.5625ZM19.3125 6.5H19.9375V7.75H19.3125V6.5ZM18.375 9.9375C18.3751 9.85465 18.4081 9.77522 18.4666 9.71663C18.5252 9.65805 18.6047 9.62509 18.6875 9.625H20.5625C20.6454 9.62509 20.7248 9.65805 20.7834 9.71663C20.842 9.77522 20.8749 9.85465 20.875 9.9375V10.25H18.375V9.9375ZM18.6875 19.9375C18.6872 20.1861 18.5884 20.4243 18.4126 20.6001C18.2368 20.7758 17.9986 20.8747 17.75 20.875H12.75C12.5015 20.8747 12.2632 20.7758 12.0874 20.6001C11.9117 20.4243 11.8128 20.1861 11.8125 19.9375V18.0625C11.8128 17.8139 11.9117 17.5757 12.0874 17.3999C12.2632 17.2242 12.5015 17.1253 12.75 17.125H17.75C17.9986 17.1253 18.2368 17.2242 18.4126 17.3999C18.5884 17.5757 18.6872 17.8139 18.6875 18.0625V19.9375ZM15.875 16.5H12.75C12.3358 16.5005 11.9386 16.6652 11.6457 16.9582C11.3527 17.2511 11.188 17.6482 11.1875 18.0625V19.9375C11.1872 20.2758 11.2972 20.6049 11.5009 20.875H10.5625C10.4796 20.875 10.4001 20.9079 10.3415 20.9665C10.2829 21.0251 10.25 21.1046 10.25 21.1875V21.8125C10.2497 22.1508 10.3597 22.4799 10.5634 22.75H9.62501V22.4375C9.62501 22.3546 9.59209 22.2751 9.53348 22.2165C9.47488 22.1579 9.39539 22.125 9.31251 22.125C9.22963 22.125 9.15014 22.1579 9.09154 22.2165C9.03293 22.2751 9.00001 22.3546 9.00001 22.4375V22.75H7.75001V13.375H9.00001V13.6875C9.00001 13.7704 9.03293 13.8499 9.09154 13.9085C9.15014 13.9671 9.22963 14 9.31251 14C9.39539 14 9.47488 13.9671 9.53348 13.9085C9.59209 13.8499 9.62501 13.7704 9.62501 13.6875V13.375H15.875V16.5ZM15.25 5.875C15.1671 5.875 15.0876 5.90792 15.029 5.96653C14.9704 6.02513 14.9375 6.10462 14.9375 6.1875C14.9375 6.27038 14.9704 6.34987 15.029 6.40847C15.0876 6.46708 15.1671 6.5 15.25 6.5V7.125C15.1671 7.125 15.0876 7.15792 15.029 7.21653C14.9704 7.27513 14.9375 7.35462 14.9375 7.4375C14.9375 7.52038 14.9704 7.59987 15.029 7.65847C15.0876 7.71708 15.1671 7.75 15.25 7.75V8.375H14.5713C14.6069 8.27466 14.6251 8.16897 14.625 8.0625V5.5625C14.6251 5.45603 14.6069 5.35034 14.5713 5.25H15.25V5.875ZM12.75 5.5625C12.7501 5.47965 12.7831 5.40022 12.8416 5.34163C12.9002 5.28305 12.9797 5.25009 13.0625 5.25H13.6875C13.7704 5.25009 13.8498 5.28305 13.9084 5.34163C13.967 5.40022 13.9999 5.47965 14 5.5625V8.0625C13.9999 8.14535 13.967 8.22478 13.9084 8.28337C13.8498 8.34195 13.7704 8.37491 13.6875 8.375H12.75V5.5625ZM12.75 9H13.375V12.75H12.75V9ZM7.43751 12.75C7.35463 12.75 7.27514 12.7829 7.21654 12.8415C7.15793 12.9001 7.12501 12.9796 7.12501 13.0625V20.875H5.862L5.31677 8.0625H10.1833L9.98376 12.75H7.43751ZM10.2364 6.8125L10.2098 7.4375H5.2902L5.2636 6.8125H10.2364ZM5.87501 21.5H7.12501V22.75H5.87501V21.5ZM11.8125 22.75C11.564 22.7497 11.3257 22.6509 11.1499 22.4751C10.9742 22.2993 10.8753 22.0611 10.875 21.8125V21.5H19.625V21.8125C19.6247 22.0611 19.5259 22.2993 19.3501 22.4751C19.1744 22.6509 18.9361 22.7497 18.6875 22.75H11.8125ZM22.75 21.8125C22.7497 22.0611 22.6509 22.2993 22.4751 22.4751C22.2994 22.6509 22.0611 22.7497 21.8125 22.75H19.9367C20.1403 22.4799 20.2504 22.1508 20.25 21.8125V21.1875C20.25 21.1046 20.2171 21.0251 20.1585 20.9665C20.0999 20.9079 20.0204 20.875 19.9375 20.875H18.9992C19.2028 20.6049 19.3129 20.2758 19.3125 19.9375V18.0625C19.312 17.6482 19.1473 17.2511 18.8544 16.9582C18.5614 16.6652 18.1643 16.5005 17.75 16.5H16.5V11.8125C16.5003 11.5639 16.5991 11.3257 16.7749 11.1499C16.9507 10.9741 17.189 10.8753 17.4375 10.875H21.8125C22.0611 10.8753 22.2994 10.9741 22.4751 11.1499C22.6509 11.3257 22.7497 11.5639 22.75 11.8125V21.8125Z" fill="#2D9CDB"/>
<path d="M19.625 11.8125C18.3984 11.8125 17.4375 12.4988 17.4375 13.375C17.4375 14.2512 18.3984 14.9375 19.625 14.9375C20.8516 14.9375 21.8125 14.2512 21.8125 13.375C21.8125 12.4988 20.8516 11.8125 19.625 11.8125ZM19.625 14.3125C18.778 14.3125 18.0625 13.8832 18.0625 13.375C18.0625 12.8668 18.778 12.4375 19.625 12.4375C20.472 12.4375 21.1875 12.8668 21.1875 13.375C21.1875 13.8832 20.472 14.3125 19.625 14.3125Z" fill="#2D9CDB"/>
<path d="M9.3125 14.625C9.22962 14.625 9.15013 14.6579 9.09153 14.7165C9.03292 14.7751 9 14.8546 9 14.9375V15.5625C9 15.6454 9.03292 15.7249 9.09153 15.7835C9.15013 15.8421 9.22962 15.875 9.3125 15.875C9.39538 15.875 9.47487 15.8421 9.53347 15.7835C9.59208 15.7249 9.625 15.6454 9.625 15.5625V14.9375C9.625 14.8546 9.59208 14.7751 9.53347 14.7165C9.47487 14.6579 9.39538 14.625 9.3125 14.625Z" fill="#2D9CDB"/>
<path d="M9.3125 16.5C9.22962 16.5 9.15013 16.5329 9.09153 16.5915C9.03292 16.6501 9 16.7296 9 16.8125V17.4375C9 17.5204 9.03292 17.5999 9.09153 17.6585C9.15013 17.7171 9.22962 17.75 9.3125 17.75C9.39538 17.75 9.47487 17.7171 9.53347 17.6585C9.59208 17.5999 9.625 17.5204 9.625 17.4375V16.8125C9.625 16.7296 9.59208 16.6501 9.53347 16.5915C9.47487 16.5329 9.39538 16.5 9.3125 16.5Z" fill="#2D9CDB"/>
<path d="M9.3125 18.375C9.22962 18.375 9.15013 18.4079 9.09153 18.4665C9.03292 18.5251 9 18.6046 9 18.6875V19.3125C9 19.3954 9.03292 19.4749 9.09153 19.5335C9.15013 19.5921 9.22962 19.625 9.3125 19.625C9.39538 19.625 9.47487 19.5921 9.53347 19.5335C9.59208 19.4749 9.625 19.3954 9.625 19.3125V18.6875C9.625 18.6046 9.59208 18.5251 9.53347 18.4665C9.47487 18.4079 9.39538 18.375 9.3125 18.375Z" fill="#2D9CDB"/>
<path d="M9.3125 20.25C9.22962 20.25 9.15013 20.2829 9.09153 20.3415C9.03292 20.4001 9 20.4796 9 20.5625V21.1875C9 21.2704 9.03292 21.3499 9.09153 21.4085C9.15013 21.4671 9.22962 21.5 9.3125 21.5C9.39538 21.5 9.47487 21.4671 9.53347 21.4085C9.59208 21.3499 9.625 21.2704 9.625 21.1875V20.5625C9.625 20.4796 9.59208 20.4001 9.53347 20.3415C9.47487 20.2829 9.39538 20.25 9.3125 20.25Z" fill="#2D9CDB"/>
<rect x="0.3" y="0.3" width="27.4" height="27.4" rx="9.7" stroke="#2D9CDB" stroke-width="0.6"/>
</svg>
