<svg width="28" height="28" viewBox="0 0 28 28" fill="none" xmlns="http://www.w3.org/2000/svg">
<rect x="0.3" y="0.3" width="27.4" height="27.4" rx="9.7" fill="#57C8E1" fill-opacity="0.1"/>
<path d="M17.7595 14.5C17.5965 14.4995 17.4351 14.5314 17.2845 14.5938C17.1339 14.6561 16.9972 14.7477 16.8823 14.8633L16.5001 15.2456L16.1179 14.8634C16.0027 14.7482 15.8659 14.6568 15.7154 14.5945C15.5649 14.5321 15.4036 14.5 15.2406 14.5C15.0777 14.5 14.9164 14.5321 14.7659 14.5944C14.6154 14.6568 14.4786 14.7481 14.3634 14.8633C14.2482 14.9785 14.1568 15.1153 14.0945 15.2658C14.0321 15.4163 14 15.5777 14 15.7406C14 15.9035 14.0321 16.0648 14.0944 16.2153C14.1568 16.3658 14.2481 16.5026 14.3633 16.6178L16.279 18.5335C16.308 18.5625 16.3425 18.5856 16.3804 18.6013C16.4183 18.617 16.4589 18.6251 16.5 18.6251C16.541 18.6251 16.5817 18.617 16.6196 18.6013C16.6575 18.5856 16.6919 18.5625 16.721 18.5335L18.6368 16.6178C18.8103 16.4443 18.9284 16.2233 18.9763 15.9826C19.0242 15.7419 18.9996 15.4925 18.9057 15.2658C18.8118 15.0391 18.6528 14.8454 18.4487 14.709C18.2447 14.5727 18.0048 14.5 17.7595 14.5ZM18.1948 16.1758L16.5001 17.8706L14.8053 16.1758C14.6925 16.0598 14.6299 15.9041 14.631 15.7423C14.6321 15.5805 14.6969 15.4256 14.8113 15.3112C14.9257 15.1968 15.0805 15.132 15.2423 15.1309C15.4041 15.1298 15.5599 15.1925 15.6758 15.3053L16.279 15.9085C16.308 15.9375 16.3425 15.9605 16.3804 15.9762C16.4183 15.9919 16.4589 16 16.5 16C16.541 16 16.5817 15.9919 16.6196 15.9762C16.6575 15.9605 16.6919 15.9375 16.721 15.9085L17.3243 15.3053C17.4402 15.1921 17.596 15.1292 17.758 15.1302C17.92 15.1311 18.0751 15.1959 18.1896 15.3104C18.3042 15.425 18.3689 15.5801 18.3699 15.7421C18.3709 15.904 18.3079 16.0599 18.1948 16.1758Z" fill="#57C8E1"/>
<path d="M22.5968 9.66864L14.1593 4.66864C14.111 4.63998 14.0557 4.6249 13.9995 4.625C13.9433 4.6251 13.8881 4.64036 13.8398 4.66919L5.40234 9.70517C5.3559 9.73288 5.31745 9.77218 5.29075 9.81921C5.26404 9.86625 5.25 9.9194 5.25 9.97349V23.0985C5.25 23.1814 5.28292 23.2609 5.34153 23.3195C5.40013 23.3781 5.47962 23.411 5.5625 23.411H5.56316L22.4382 23.375C22.5209 23.3748 22.6002 23.3418 22.6587 23.2832C22.7172 23.2247 22.75 23.1453 22.75 23.0625V9.93751C22.75 9.88326 22.7359 9.82994 22.709 9.7828C22.6822 9.73566 22.6435 9.69632 22.5968 9.66864ZM11.5 14.6511V15.5625C11.5 15.6205 11.5162 15.6774 11.5467 15.7268C11.5772 15.7762 11.6208 15.816 11.6727 15.842L12.7617 16.3865C12.9643 16.487 13.1411 16.6327 13.2784 16.8125C13.4157 16.9922 13.5098 17.2011 13.5534 17.4231L13.6936 18.1238C13.7057 18.1843 13.7354 18.2399 13.7791 18.2835L13.8107 18.3152C13.9196 18.4238 13.9846 18.5689 13.9931 18.7225C14.0016 18.8761 13.9531 19.0275 13.8568 19.1475L13.7561 19.2734L13.6554 19.3994C13.5294 19.5568 13.3717 19.6859 13.1924 19.7783C13.0132 19.8706 12.8165 19.9241 12.6152 19.9352C12.4138 19.9464 12.2124 19.915 12.0241 19.843C11.8358 19.771 11.6647 19.6601 11.5221 19.5175L11.4086 19.404C11.35 19.3454 11.2705 19.3124 11.1876 19.3124C11.1047 19.3124 11.0252 19.3454 10.9666 19.404C10.908 19.4626 10.8751 19.5421 10.8751 19.6249C10.8751 19.7078 10.908 19.7873 10.9666 19.8459L11.0802 19.9595C11.2714 20.1507 11.4984 20.3024 11.7483 20.4058C11.9981 20.5093 12.2659 20.5625 12.5363 20.5625C12.8067 20.5624 13.0745 20.5091 13.3243 20.4055C13.5741 20.302 13.801 20.1502 13.9921 19.9589L14.381 20.4453C14.4215 20.496 14.4768 20.5328 14.5392 20.5506L14.6233 20.5747C15.1117 20.716 15.5479 20.9973 15.8781 21.384C16.2082 21.7706 16.4178 22.2455 16.4809 22.75H9.23086L9.10977 22.3563C8.78971 21.3186 8.69914 20.2238 8.84434 19.1477C8.98953 18.0715 9.36702 17.0398 9.95062 16.1241L10.2013 15.7303C10.207 15.7212 10.2123 15.7119 10.2171 15.7023L10.2894 15.5577C10.4061 15.3223 10.5764 15.1176 10.7867 14.9602C10.9969 14.8027 11.2413 14.6968 11.5 14.6511ZM14.8067 19.977L14.3982 19.4663C14.5592 19.233 14.6361 18.9518 14.6161 18.669C14.5961 18.3862 14.4805 18.1186 14.2882 17.9103L14.1663 17.3004C14.1043 16.9851 13.9705 16.6882 13.7755 16.4328C13.5804 16.1774 13.3292 15.9703 13.0413 15.8275L12.125 15.3694V14.4274L13.4033 14.3112C13.4563 14.3064 13.5072 14.2881 13.5512 14.2581C13.5951 14.2281 13.6307 14.1874 13.6545 14.1398L13.967 13.5148C14.0033 13.4407 14.0089 13.3554 13.9825 13.2772C13.9561 13.1991 13.8999 13.1346 13.8262 13.0977C13.7524 13.0608 13.6671 13.0546 13.5888 13.0803C13.5104 13.1061 13.4455 13.1618 13.408 13.2352L13.1733 13.7046L10.0944 13.9844L9.74586 13.4616L9.78676 13.4342C10.0194 13.2785 10.1964 13.0528 10.2921 12.7897C10.3877 12.5266 10.3971 12.2398 10.3187 11.9711L11.3273 11.4668C11.3957 11.4326 11.4492 11.3744 11.4777 11.3034L11.8605 10.3463C11.9194 10.1987 12.0098 10.0657 12.1255 9.9566C12.2411 9.84753 12.3792 9.76504 12.5301 9.71489L13.2723 9.46747C13.3864 9.42967 13.5042 9.40389 13.6236 9.39056C13.7487 9.5343 13.861 9.68866 13.9593 9.85189L14.2776 10.3824C14.505 10.7613 14.625 11.1949 14.625 11.6367V12.2901C14.625 12.7045 14.7896 13.102 15.0826 13.395C15.3757 13.688 15.7731 13.8526 16.1875 13.8526C16.6019 13.8526 16.9993 13.688 17.2924 13.395C17.5854 13.102 17.75 12.7045 17.75 12.2901C17.7499 12.1635 17.742 12.0369 17.7262 11.9112C17.8513 12.0729 17.971 12.2392 18.0853 12.4102C19.1027 13.94 19.7458 15.6878 19.9625 17.5122C20.1505 19.0937 20.0103 20.697 19.5508 22.222L19.3906 22.7565L17.1102 22.7614C17.0478 22.1204 16.7951 21.5128 16.3846 21.0166C15.9741 20.5204 15.4246 20.1584 14.8067 19.977ZM9.34023 12.8533C9.31566 12.8164 9.2992 12.7747 9.29196 12.731C9.28471 12.6873 9.28685 12.6425 9.29822 12.5997C9.3096 12.5569 9.32995 12.517 9.35793 12.4826C9.38591 12.4482 9.42087 12.4202 9.46051 12.4004L9.74176 12.2598C9.75662 12.3861 9.73633 12.514 9.68313 12.6295C9.62993 12.745 9.54587 12.8435 9.44023 12.9143L9.39937 12.9417L9.34023 12.8533ZM16.3019 10.4644C16.5603 10.6932 16.7673 10.9743 16.9091 11.2889C17.051 11.6036 17.1246 11.9448 17.125 12.29C17.1256 12.4642 17.0774 12.6351 16.9858 12.7833C16.8942 12.9315 16.7629 13.0511 16.6068 13.1285C16.4765 13.1932 16.333 13.2269 16.1875 13.2269C16.042 13.2269 15.8985 13.1932 15.7682 13.1285C15.6121 13.0511 15.4808 12.9315 15.3892 12.7833C15.2976 12.6351 15.2494 12.4642 15.25 12.29V11.6367C15.25 11.0818 15.0991 10.5372 14.8136 10.0613L14.4954 9.53083C14.4863 9.51575 14.4764 9.50118 14.4671 9.48622C14.9901 9.62833 15.4835 9.86266 15.9241 10.1782C16.053 10.2702 16.179 10.3656 16.3019 10.4644ZM22.125 22.7507L20.0435 22.7551L20.1495 22.4016C20.6336 20.7948 20.7812 19.1055 20.5831 17.4392C20.3549 15.5169 19.6774 13.6753 18.6055 12.0634C18.0822 11.2776 17.4411 10.577 16.7047 9.98618C16.6292 9.92009 16.5504 9.85728 16.4679 9.79833C16.4583 9.79155 16.4484 9.7853 16.4382 9.77962C16.3883 9.74251 16.3382 9.70564 16.2875 9.66946C15.688 9.23994 15.0036 8.94346 14.2802 8.79985C13.8787 8.7197 13.4633 8.74556 13.0748 8.87489L12.3327 9.12228C12.0956 9.20107 11.8786 9.33068 11.6968 9.50206C11.5151 9.67343 11.3729 9.88244 11.2804 10.1145L10.9414 10.9611L9.1809 11.8414C9.062 11.9008 8.95711 11.9849 8.87317 12.088C8.78924 12.191 8.72819 12.3108 8.69407 12.4393C8.65995 12.5678 8.65355 12.702 8.67528 12.8332C8.69701 12.9643 8.74638 13.0893 8.82012 13.1999L9.05234 13.5482L9.67734 14.4857C9.70854 14.5325 9.75179 14.57 9.80253 14.5943C9.85327 14.6185 9.90962 14.6287 9.96562 14.6236L10.2439 14.5983C10.0322 14.7912 9.85801 15.0216 9.73016 15.2779L9.66504 15.4082L9.42309 15.7883C8.79083 16.7804 8.38189 17.898 8.22459 19.0639C8.06729 20.2297 8.16541 21.4158 8.51215 22.5399L8.58582 22.7793L5.875 22.7852V10.1509L14.0006 5.3011L22.125 10.1156V22.7507Z" fill="#57C8E1"/>
<path d="M12.4375 18.1797C12.6748 18.1797 12.8672 17.9873 12.8672 17.75C12.8672 17.5127 12.6748 17.3203 12.4375 17.3203C12.2002 17.3203 12.0078 17.5127 12.0078 17.75C12.0078 17.9873 12.2002 18.1797 12.4375 18.1797Z" fill="#57C8E1"/>
<path d="M12.6328 11.8125C12.8701 11.8125 13.0625 11.6201 13.0625 11.3828C13.0625 11.1455 12.8701 10.9531 12.6328 10.9531C12.3955 10.9531 12.2031 11.1455 12.2031 11.3828C12.2031 11.6201 12.3955 11.8125 12.6328 11.8125Z" fill="#57C8E1"/>
<rect x="0.3" y="0.3" width="27.4" height="27.4" rx="9.7" stroke="#57C8E1" stroke-width="0.6"/>
</svg>
