<svg width="28" height="28" viewBox="0 0 28 28" fill="none" xmlns="http://www.w3.org/2000/svg">
<rect x="0.3" y="0.3" width="27.4" height="27.4" rx="9.7" fill="#5E9C60" fill-opacity="0.1"/>
<g clip-path="url(#clip0)">
<path d="M23.4791 18.315C23.106 17.7667 22.4731 17.6328 21.7856 17.9563L21.4212 18.1168C21.9958 16.8922 22.0671 15.5271 21.781 14.2376C21.4526 12.7566 20.6592 11.3219 19.4229 9.97338C19.3136 9.85412 19.1283 9.84607 19.0091 9.95541C18.8898 10.0647 18.8817 10.25 18.9911 10.3693C20.1569 11.641 20.9032 12.9852 21.2091 14.3644C21.5314 15.8173 21.3439 17.3156 20.5216 18.5129L16.8754 20.1183L16.8784 19.7065C16.8785 19.6961 16.878 19.6857 16.877 19.6754C16.7928 18.829 16.1458 18.1547 15.3037 18.0355C15.3012 18.0351 15.2987 18.0348 15.2962 18.0346L12.0555 17.6614C10.8094 17.484 10.4884 16.7373 8.80077 16.3115C8.68417 15.322 8.8396 14.2685 9.26561 13.2124C9.90722 11.6219 11.1624 10.0765 12.9025 8.7315C13.551 9.19135 16.4445 9.24857 17.092 8.65537C17.4237 8.90729 17.7403 9.16689 18.0353 9.42967C18.0911 9.47943 18.1607 9.50389 18.23 9.50389C18.3107 9.50389 18.391 9.4708 18.4488 9.40584C18.5564 9.28506 18.5457 9.0999 18.425 8.99229C18.1017 8.70428 17.7539 8.4201 17.3892 8.14545C17.4747 7.78303 17.3551 7.35885 17.0394 7.10635C17.9566 5.71525 18.2233 4.80475 17.8549 4.32772C17.6018 4.00002 17.2869 4.15381 17.1525 4.21951C16.9246 4.33076 16.8003 4.33662 16.5907 4.19943C16.1906 3.93768 15.7701 3.92924 15.3572 4.19943C15.1449 4.33838 14.9776 4.33838 14.7654 4.19943C14.3653 3.93768 13.945 3.92924 13.532 4.19943C13.3199 4.33826 13.1951 4.32967 12.9708 4.21818C12.8366 4.15143 12.5221 3.9951 12.2674 4.32283C11.9072 4.78643 12.1482 5.66822 13.0034 7.01201C12.951 7.04033 12.9011 7.07357 12.8545 7.11154C12.5144 6.75232 11.9571 6.37768 11.1511 6.46768C10.4826 6.54248 9.98972 6.32158 9.69386 6.12314C9.55948 6.03314 9.37753 6.069 9.28745 6.2033C9.19737 6.33768 9.23327 6.51963 9.36761 6.60971C9.74476 6.86256 10.3716 7.14404 11.2161 7.04986C11.8388 6.98002 12.2613 7.29822 12.5243 7.62205C12.5207 7.63455 12.5174 7.64713 12.5143 7.65971C12.29 7.66322 11.9547 7.68416 11.5855 7.76096C10.6975 7.94568 10.0383 8.36768 9.67925 8.98143C9.59757 9.12104 9.64452 9.30049 9.78413 9.38221C9.92378 9.46389 10.1032 9.41689 10.1849 9.27729C10.719 8.36443 12.0228 8.25279 12.5407 8.2458C12.5429 8.25225 12.5455 8.25861 12.5478 8.26502C10.6999 9.69053 9.41331 11.2803 8.72237 12.9931C8.28565 14.0758 8.1112 15.1605 8.19976 16.1913C7.91886 16.1498 7.63472 16.1275 7.34921 16.1255V15.9484C7.34921 15.4797 6.96788 15.0984 6.49917 15.0984H5.15448C4.68577 15.0984 4.30444 15.4797 4.30444 15.9484V22.7704C4.30444 23.2392 4.68577 23.6204 5.15448 23.6204H6.49913C6.96784 23.6204 7.34917 23.2391 7.34917 22.7704V22.687L10.2824 23.7787C10.6766 23.9254 11.0897 23.9998 11.5103 23.9998H15.8808C16.5491 23.9998 17.2006 23.8108 17.765 23.4531C23.5954 19.7571 23.2413 19.987 23.275 19.9572C23.7446 19.5403 23.8324 18.8343 23.4791 18.315ZM16.5423 8.30826C15.4712 8.57873 14.4297 8.57873 13.3583 8.30826C12.8985 8.19205 13.0317 7.37213 13.5258 7.49604C14.4843 7.73666 15.4162 7.73666 16.3748 7.49604C16.8603 7.37416 17.0094 8.19022 16.5423 8.30826ZM12.7033 4.73947C12.7056 4.74061 12.7079 4.74178 12.7101 4.74287C13.1066 4.9399 13.4539 4.95061 13.8527 4.68971C14.3518 4.36303 14.406 4.88682 15.0612 4.88682C15.3767 4.88682 15.5508 4.77291 15.6779 4.68971C15.8903 4.55072 16.0576 4.5508 16.2699 4.68971C16.6705 4.95182 17.0094 4.93889 17.4174 4.74213C17.4777 4.95939 17.3413 5.60709 16.4727 6.90029C16.0414 6.89295 15.4154 7.31658 13.6435 6.92225C12.7767 5.61232 12.6427 4.95834 12.7033 4.73947ZM22.9019 19.5047L17.4514 22.9585C16.981 23.2566 16.4379 23.4142 15.8809 23.4142H11.5103C11.1598 23.4142 10.8154 23.3522 10.4868 23.2299L7.34917 22.062V18.9075C7.34917 18.7457 7.21804 18.6146 7.05628 18.6146C6.89452 18.6146 6.76339 18.7457 6.76339 18.9075V22.7706C6.76339 22.9163 6.64483 23.0348 6.49917 23.0348H5.15448C5.00878 23.0348 4.89026 22.9162 4.89026 22.7706V15.9485C4.89026 15.8028 5.00878 15.6844 5.15448 15.6844H6.49913C6.64483 15.6844 6.76335 15.8029 6.76335 15.9485V17.5381C6.76335 17.6999 6.89448 17.8311 7.05624 17.8311C7.218 17.8311 7.34913 17.6999 7.34913 17.5381V16.7115C9.77222 16.7301 10.317 18.0072 11.9771 18.242C11.9796 18.2424 11.9821 18.2427 11.9846 18.243L15.2251 18.6161C15.7925 18.698 16.2292 19.1498 16.2924 19.7187L16.2883 20.2759H13.2663C13.1045 20.2759 12.9733 20.407 12.9733 20.5688C12.9733 20.7306 13.1045 20.8617 13.2663 20.8617H16.5791C16.6161 20.8617 16.6589 20.8535 16.696 20.8373C16.702 20.8347 22.0188 18.4938 22.025 18.491C22.4083 18.3207 22.7577 18.2964 22.9946 18.6446C23.1789 18.9152 23.1381 19.281 22.9019 19.5047Z" fill="#5E9C60"/>
<path d="M15.0274 17.2898C15.1891 17.2898 15.3203 17.1587 15.3203 16.9969V16.5113C16.1426 16.3779 16.6224 15.7123 16.7268 15.0914C16.8572 14.3157 16.4509 13.6411 15.6917 13.3728C15.5576 13.3254 15.4342 13.28 15.3203 13.2363V11.3686C15.6668 11.4261 15.8748 11.6054 15.89 11.6188C16.009 11.727 16.1931 11.719 16.3023 11.6006C16.412 11.4817 16.4045 11.2964 16.2856 11.1867C16.2649 11.1677 15.9062 10.8447 15.3203 10.7771V10.3606C15.3203 10.1988 15.1891 10.0676 15.0273 10.0676C14.8656 10.0676 14.7344 10.1988 14.7344 10.3606V10.8008C14.6638 10.8143 14.5915 10.8315 14.5171 10.8539C14.0203 11.0035 13.6488 11.4296 13.5478 11.9657C13.4561 12.4522 13.6104 12.9201 13.9503 13.1868C14.1455 13.3399 14.3912 13.48 14.7344 13.6299V15.9463C14.3957 15.932 14.1872 15.8684 13.8234 15.6304C13.6881 15.5419 13.5065 15.5797 13.4179 15.7152C13.3294 15.8505 13.3673 16.0321 13.5027 16.1206C13.9809 16.4334 14.3005 16.515 14.7344 16.5319V16.9969C14.7344 17.1587 14.8656 17.2898 15.0274 17.2898ZM14.3119 12.7258C14.1447 12.5947 14.0724 12.345 14.1235 12.0742C14.1708 11.8231 14.3435 11.5181 14.6861 11.4149C14.7024 11.4099 14.7184 11.4057 14.7344 11.4014V12.9836C14.559 12.8961 14.4215 12.8118 14.3119 12.7258ZM15.4965 13.9252C16.2254 14.1828 16.1803 14.8086 16.149 14.9943C16.0844 15.3787 15.8023 15.7891 15.3203 15.9126V13.8617C15.3773 13.8825 15.4355 13.9036 15.4965 13.9252Z" fill="#5E9C60"/>
</g>
<rect x="0.3" y="0.3" width="27.4" height="27.4" rx="9.7" stroke="#5E9C60" stroke-width="0.6"/>
<defs>
<clipPath id="clip0">
<rect width="20" height="20" fill="white" transform="translate(4 4)"/>
</clipPath>
</defs>
</svg>
