<svg width="28" height="28" viewBox="0 0 28 28" fill="none" xmlns="http://www.w3.org/2000/svg">
<rect x="0.3" y="0.3" width="27.4" height="27.4" rx="9.7" fill="#BD55EE" fill-opacity="0.16"/>
<path d="M19 20.5625C18.4831 20.5625 18.0625 20.9831 18.0625 21.5C18.0625 22.0169 18.4831 22.4375 19 22.4375C19.5169 22.4375 19.9375 22.0169 19.9375 21.5C19.9375 20.9831 19.5169 20.5625 19 20.5625ZM19 21.8125C18.8278 21.8125 18.6875 21.6725 18.6875 21.5C18.6875 21.3275 18.8278 21.1875 19 21.1875C19.1722 21.1875 19.3125 21.3275 19.3125 21.5C19.3125 21.6725 19.1722 21.8125 19 21.8125Z" fill="#BD55EE"/>
<path d="M8.375 20.5625C7.85812 20.5625 7.4375 20.9831 7.4375 21.5C7.4375 22.0169 7.85812 22.4375 8.375 22.4375C8.89188 22.4375 9.3125 22.0169 9.3125 21.5C9.3125 20.9831 8.89188 20.5625 8.375 20.5625ZM8.375 21.8125C8.20281 21.8125 8.0625 21.6725 8.0625 21.5C8.0625 21.3275 8.20281 21.1875 8.375 21.1875C8.54719 21.1875 8.6875 21.3275 8.6875 21.5C8.6875 21.6725 8.54719 21.8125 8.375 21.8125Z" fill="#BD55EE"/>
<path d="M10.875 18.6875H11.5V19.3125H10.875V18.6875Z" fill="#BD55EE"/>
<path d="M11.5 18.0625H12.125V18.6875H11.5V18.0625Z" fill="#BD55EE"/>
<path d="M12.125 18.6875H12.75V19.3125H12.125V18.6875Z" fill="#BD55EE"/>
<path d="M12.75 18.0625H13.375V18.6875H12.75V18.0625Z" fill="#BD55EE"/>
<path d="M13.375 18.6875H14V19.3125H13.375V18.6875Z" fill="#BD55EE"/>
<path d="M14 18.0625H14.625V18.6875H14V18.0625Z" fill="#BD55EE"/>
<path d="M14.625 18.6875H15.25V19.3125H14.625V18.6875Z" fill="#BD55EE"/>
<path d="M15.25 18.0625H15.875V18.6875H15.25V18.0625Z" fill="#BD55EE"/>
<path d="M15.875 18.6875H16.5V19.3125H15.875V18.6875Z" fill="#BD55EE"/>
<path d="M14.3125 7.125H14.9375V9H15.5625V7.125H16.1875V6.5H14.3125V7.125Z" fill="#BD55EE"/>
<path d="M17.75 6.5C17.2331 6.5 16.8125 6.92062 16.8125 7.4375V9H17.4375V8.375H18.0625V9H18.6875V7.4375C18.6875 6.92062 18.2669 6.5 17.75 6.5ZM17.4375 7.75V7.4375C17.4375 7.265 17.5778 7.125 17.75 7.125C17.9222 7.125 18.0625 7.265 18.0625 7.4375V7.75H17.4375Z" fill="#BD55EE"/>
<path d="M20.5625 6.5C20.5625 6.795 20.4469 7.08125 20.25 7.29969C20.0531 7.08125 19.9375 6.795 19.9375 6.5H19.3125C19.3125 6.9625 19.4947 7.41406 19.8119 7.75C19.4947 8.08594 19.3125 8.5375 19.3125 9H19.9375C19.9375 8.705 20.0531 8.41875 20.25 8.20031C20.4469 8.41875 20.5625 8.705 20.5625 9H21.1875C21.1875 8.5375 21.0053 8.08594 20.6881 7.75C21.0053 7.41406 21.1875 6.9625 21.1875 6.5H20.5625Z" fill="#BD55EE"/>
<path d="M21.8125 6.5H22.4375V9H21.8125V6.5Z" fill="#BD55EE"/>
<path d="M19.625 12.4375C19.7975 12.4375 19.9375 12.2978 19.9375 12.125V11.1875H23.375C23.5475 11.1875 23.6875 11.0478 23.6875 10.875V4.625C23.6875 4.45219 23.5475 4.3125 23.375 4.3125H13.375C13.2025 4.3125 13.0625 4.45219 13.0625 4.625V10.875C13.0625 11.0478 13.2025 11.1875 13.375 11.1875H16.8125V12.125C16.8125 12.2978 16.9525 12.4375 17.125 12.4375H17.4375V14.1034L17.3869 14.0569C16.8728 13.5825 16.2444 13.2672 15.5697 13.1344V12.125C15.5697 11.9522 15.4297 11.8125 15.2572 11.8125H10.25C10.0775 11.8125 9.9375 11.9522 9.9375 12.125V13.1731C9.03937 13.395 8.24563 13.9431 7.71938 14.7325L6.33281 16.8125H5.875C5.01344 16.8125 4.3125 17.5134 4.3125 18.375V20.875C4.3125 21.3919 4.73312 21.8125 5.25 21.8125H6.2125C6.365 22.8706 7.27531 23.6875 8.375 23.6875C9.47469 23.6875 10.385 22.8706 10.5375 21.8125H16.8375C16.99 22.8706 17.9003 23.6875 19 23.6875C20.0997 23.6875 21.01 22.8706 21.1625 21.8125H22.75C23.2669 21.8125 23.6875 21.3919 23.6875 20.875V18.375C23.6875 17.5134 22.9866 16.8125 22.125 16.8125H20.3722L19.3125 15.8344V12.4375H19.625ZM13.6875 4.9375H23.0625V10.5625H13.6875V4.9375ZM19.3125 11.1875V11.8125H17.4375V11.1875H19.3125ZM10.5625 12.4375H14.9447V13.0672C14.9109 13.0662 14.8775 13.0625 14.8434 13.0625H10.8397C10.7462 13.0625 10.6547 13.0728 10.5625 13.0797V12.4375ZM12.1322 16.8125V13.6875H12.7572V16.8125H12.1322ZM8.23938 15.0791C8.82031 14.2078 9.7925 13.6875 10.8397 13.6875H11.5072V16.8125H7.08375L8.23938 15.0791ZM5.5625 17.495V18.375C5.5625 18.7819 5.30031 19.1256 4.9375 19.255V18.375C4.9375 17.9681 5.19969 17.6244 5.5625 17.495ZM8.375 23.0625C7.51344 23.0625 6.8125 22.3616 6.8125 21.5C6.8125 20.6384 7.51344 19.9375 8.375 19.9375C9.23656 19.9375 9.9375 20.6384 9.9375 21.5C9.9375 22.3616 9.23656 23.0625 8.375 23.0625ZM19 23.0625C18.1384 23.0625 17.4375 22.3616 17.4375 21.5C17.4375 20.6384 18.1384 19.9375 19 19.9375C19.8616 19.9375 20.5625 20.6384 20.5625 21.5C20.5625 22.3616 19.8616 23.0625 19 23.0625ZM22.75 21.1875H21.1625C21.01 20.1294 20.0997 19.3125 19 19.3125C17.9003 19.3125 16.99 20.1294 16.8375 21.1875H10.5375C10.385 20.1294 9.47469 19.3125 8.375 19.3125C7.27531 19.3125 6.365 20.1294 6.2125 21.1875H5.25C5.07781 21.1875 4.9375 21.0475 4.9375 20.875V19.9059C5.64969 19.7606 6.1875 19.1294 6.1875 18.375V17.4375H21.1875V18.0625C21.1875 18.7519 21.7481 19.3125 22.4375 19.3125H23.0625V20.875C23.0625 21.0475 22.9222 21.1875 22.75 21.1875ZM23.0625 18.375V18.6875H22.4375C22.0928 18.6875 21.8125 18.4072 21.8125 18.0625V17.4375H22.125C22.6419 17.4375 23.0625 17.8581 23.0625 18.375ZM13.3822 16.8125V13.6875H14.8434C15.6313 13.6875 16.3841 13.9816 16.9631 14.5159L19.4509 16.8125H13.3822ZM18.6875 15.2575L18.0625 14.6806V12.4375H18.6875V15.2575Z" fill="#BD55EE"/>
<rect x="0.3" y="0.3" width="27.4" height="27.4" rx="9.7" stroke="#BD55EE" stroke-width="0.6"/>
</svg>
