<svg width="28" height="28" viewBox="0 0 28 28" fill="none" xmlns="http://www.w3.org/2000/svg">
<rect x="0.3" y="0.3" width="27.4" height="27.4" rx="9.7" fill="#575DE1" fill-opacity="0.16"/>
<path d="M8.6875 17.125C8.44027 17.125 8.1986 17.1983 7.99304 17.3357C7.78748 17.473 7.62726 17.6682 7.53265 17.8966C7.43804 18.1251 7.41329 18.3764 7.46152 18.6189C7.50975 18.8613 7.6288 19.0841 7.80362 19.2589C7.97843 19.4337 8.20116 19.5527 8.44364 19.601C8.68611 19.6492 8.93745 19.6245 9.16585 19.5298C9.39426 19.4352 9.58949 19.275 9.72684 19.0695C9.86419 18.8639 9.9375 18.6222 9.9375 18.375C9.93713 18.0436 9.80531 17.7259 9.57097 17.4915C9.33663 17.2572 9.01891 17.1254 8.6875 17.125ZM8.6875 19C8.56389 19 8.44305 18.9633 8.34027 18.8947C8.23749 18.826 8.15738 18.7284 8.11008 18.6142C8.06277 18.5 8.05039 18.3743 8.07451 18.2531C8.09863 18.1318 8.15815 18.0205 8.24556 17.9331C8.33297 17.8456 8.44433 17.7861 8.56557 17.762C8.68681 17.7379 8.81247 17.7503 8.92668 17.7976C9.04088 17.8449 9.13849 17.925 9.20717 18.0278C9.27585 18.1305 9.3125 18.2514 9.3125 18.375C9.3123 18.5407 9.24639 18.6996 9.12923 18.8167C9.01206 18.9339 8.8532 18.9998 8.6875 19Z" fill="#575DE1"/>
<path d="M19.3125 17.125C19.0653 17.125 18.8236 17.1983 18.618 17.3357C18.4125 17.473 18.2523 17.6682 18.1577 17.8966C18.063 18.1251 18.0383 18.3764 18.0865 18.6189C18.1348 18.8613 18.2538 19.0841 18.4286 19.2589C18.6034 19.4337 18.8262 19.5527 19.0686 19.601C19.3111 19.6492 19.5624 19.6245 19.7909 19.5298C20.0193 19.4352 20.2145 19.275 20.3518 19.0695C20.4892 18.8639 20.5625 18.6222 20.5625 18.375C20.5621 18.0436 20.4303 17.7259 20.196 17.4915C19.9616 17.2572 19.6439 17.1254 19.3125 17.125ZM19.3125 19C19.1889 19 19.068 18.9633 18.9653 18.8947C18.8625 18.826 18.7824 18.7284 18.7351 18.6142C18.6878 18.5 18.6754 18.3743 18.6995 18.2531C18.7236 18.1318 18.7832 18.0205 18.8706 17.9331C18.958 17.8456 19.0693 17.7861 19.1906 17.762C19.3118 17.7379 19.4375 17.7503 19.5517 17.7976C19.6659 17.8449 19.7635 17.925 19.8322 18.0278C19.9008 18.1305 19.9375 18.2514 19.9375 18.375C19.9373 18.5407 19.8714 18.6996 19.7542 18.8167C19.6371 18.9339 19.4782 18.9998 19.3125 19Z" fill="#575DE1"/>
<path d="M10.5625 17.4375H17.4375V18.0625H10.5625V17.4375Z" fill="#575DE1"/>
<path d="M10.5625 18.6875H17.4375V19.3125H10.5625V18.6875Z" fill="#575DE1"/>
<path d="M22.75 10.25H21.8125V6.8125C21.8118 6.23254 21.5812 5.67652 21.1711 5.26642C20.761 4.85633 20.205 4.62565 19.625 4.625H8.375C7.79504 4.62565 7.23902 4.85633 6.82892 5.26642C6.41883 5.67652 6.18815 6.23254 6.1875 6.8125V8.0625H13.6875V15.5625H11.2017L12.4375 14.1893V14.9375H13.0625V11.8125H12.4375V13.2551L10.3608 15.5625H6.8125V8.6875H6.1875V10.25H5.25C5.0843 10.2502 4.92544 10.3161 4.80828 10.4333C4.69111 10.5504 4.6252 10.7093 4.625 10.875V14C4.6252 14.1657 4.69111 14.3246 4.80828 14.4417C4.92544 14.5589 5.0843 14.6248 5.25 14.625H6.1875V19.9375C6.18775 20.1313 6.24795 20.3203 6.35985 20.4785C6.47175 20.6367 6.62986 20.7564 6.8125 20.8212V22.75C6.8127 22.9157 6.87861 23.0746 6.99578 23.1917C7.11294 23.3089 7.2718 23.3748 7.4375 23.375H9.3125C9.4782 23.3748 9.63706 23.3089 9.75422 23.1917C9.87139 23.0746 9.9373 22.9157 9.9375 22.75V20.875H20.5625V22.75H18.6875V21.5H18.0625V22.75C18.0627 22.9157 18.1286 23.0746 18.2458 23.1917C18.3629 23.3089 18.5218 23.3748 18.6875 23.375H20.5625C20.7282 23.3748 20.8871 23.3089 21.0042 23.1917C21.1214 23.0746 21.1873 22.9157 21.1875 22.75V20.8212C21.3701 20.7564 21.5282 20.6367 21.6401 20.4785C21.752 20.3203 21.8123 20.1313 21.8125 19.9375V14.625H22.75C22.9157 14.6248 23.0746 14.5589 23.1917 14.4417C23.3089 14.3246 23.3748 14.1657 23.375 14V10.875C23.3748 10.7093 23.3089 10.5504 23.1917 10.4333C23.0746 10.3161 22.9157 10.2502 22.75 10.25ZM6.8125 6.8125C6.81297 6.39824 6.97773 6.00108 7.27066 5.70816C7.56358 5.41523 7.96074 5.25047 8.375 5.25H19.625C20.0393 5.25047 20.4364 5.41523 20.7293 5.70816C21.0223 6.00108 21.187 6.39824 21.1875 6.8125V7.4375H6.8125V6.8125ZM14.3125 8.0625H21.1875V15.5625H17.6392L15.5625 13.2551V11.8125H14.9375V14.9375H15.5625V14.1893L16.7983 15.5625H14.3125V8.0625ZM5.25 14V10.875H6.1875V14H5.25ZM9.3125 22.75H7.4375V20.875H9.3125V22.75ZM20.875 20.25H7.125C7.04215 20.2499 6.96272 20.217 6.90413 20.1584C6.84555 20.0998 6.81259 20.0204 6.8125 19.9375V16.1875H9.79832L9.70523 16.2909L10.1698 16.7089L10.6392 16.1875H17.3608L17.8302 16.7091L18.2948 16.2911L18.2017 16.1875H21.1875V19.9375C21.1874 20.0204 21.1545 20.0998 21.0959 20.1584C21.0373 20.217 20.9579 20.2499 20.875 20.25ZM22.75 14H21.8125V10.875H22.75L22.7504 14H22.75Z" fill="#575DE1"/>
<path d="M13.6875 5.875H14.3125V6.5H13.6875V5.875Z" fill="#575DE1"/>
<path d="M14.9375 5.875H15.5625V6.5H14.9375V5.875Z" fill="#575DE1"/>
<path d="M12.4375 5.875H13.0625V6.5H12.4375V5.875Z" fill="#575DE1"/>
<path d="M8.0625 5.875H8.6875V6.5H8.0625V5.875Z" fill="#575DE1"/>
<path d="M19.3125 5.875H19.9375V6.5H19.3125V5.875Z" fill="#575DE1"/>
<rect x="0.3" y="0.3" width="27.4" height="27.4" rx="9.7" stroke="#575DE1" stroke-width="0.6"/>
</svg>
